<?xml version="1.0" encoding="utf-8"?>
<!-- Generator: Adobe Illustrator 26.5.1, SVG Export Plug-In . SVG Version: 6.00 Build 0)  -->
<svg version="1.1" id="Layer_1" xmlns="http://www.w3.org/2000/svg" xmlns:xlink="http://www.w3.org/1999/xlink" x="0px" y="0px"
	 viewBox="0 0 80 31.7" style="enable-background:new 0 0 80 31.7;" xml:space="preserve">
<style type="text/css">
	.st0{clip-path:url(#SVGID_00000078015480204585166630000006420892615822324917_);}
	.st1{fill-rule:evenodd;clip-rule:evenodd;fill:#D06332;}
	.st2{fill-rule:evenodd;clip-rule:evenodd;fill:#E0EBF2;}
	.st3{fill-rule:evenodd;clip-rule:evenodd;fill:#0C0E0F;}
	.st4{fill-rule:evenodd;clip-rule:evenodd;fill:#E7EEF3;}
	.st5{fill-rule:evenodd;clip-rule:evenodd;fill:#B2A43F;}
	.st6{fill-rule:evenodd;clip-rule:evenodd;fill:#FAE935;}
	.st7{fill-rule:evenodd;clip-rule:evenodd;fill:#E7EEF3;stroke:#0C0E0F;stroke-width:9.1566;stroke-miterlimit:2.613;}
	.st8{fill-rule:evenodd;clip-rule:evenodd;fill:#00AAE8;}
	.st9{clip-path:url(#SVGID_00000000186410134146307260000017996778535863029407_);}
</style>
<g>
	<defs>
		<rect id="SVGID_1_" x="-15" y="-16.4" width="59.9" height="55.2"/>
	</defs>
	<clipPath id="SVGID_00000121277567675690157940000003377342216570931369_">
		<use xlink:href="#SVGID_1_"  style="overflow:visible;"/>
	</clipPath>
	<g style="clip-path:url(#SVGID_00000121277567675690157940000003377342216570931369_);">
		<path class="st1" d="M10.4,21.2c0.2-0.2-0.2-0.3-0.3-0.3c0-0.2,0.3-0.3,0.5-0.2c0.1-0.1,0.3-0.1,0.3,0.1c0.1,0.2,0.2,0.2,0.4,0.2
			c0.3,0,0.5-0.2,0.5-0.5c0-0.1,0.1-0.3,0.1-0.4c0,0-0.3,0-0.4-0.3c-0.2,0.1-0.5,0.1-0.7,0c0.1,0,0.3-0.1,0.2-0.2
			c-0.1,0-0.1,0-0.2,0c0-0.1,0.2-0.2,0.2-0.2c0-0.1-0.2-0.1-0.2,0c0.1-0.1,0.1-0.1,0.1-0.2C10.8,19,10.7,19,10.5,19
			c0-0.1,0.3-0.2,0.2-0.3c-0.1-0.1-0.1,0-0.2,0c0,0,0,0,0.1,0c0,0,0.1-0.1,0.1-0.1c0-0.1-0.1-0.1-0.2-0.1c0.1-0.2,0.2-0.2,0.5-0.3
			c0-0.1,0-0.1-0.1-0.1c-0.1,0-0.2,0-0.2-0.1c0,0,0-0.1,0-0.1c0.1,0,0.2,0,0.2,0c0.1,0,0.1-0.1,0-0.1c-0.1,0-0.1,0-0.2,0
			c-0.1,0,0-0.1-0.1-0.1c-0.2,0-0.3-0.3-0.1-0.4c0,0,0.2,0.3,0.3,0.1c0-0.2-0.2-0.3-0.3-0.3c0.2-0.2,0.5-0.1,0.5,0
			c0.1,0,0.1,0,0.2,0c0,0,0.1-0.1,0-0.1c0-0.1-0.1-0.1-0.2-0.1c0.2-0.1,0.5-0.1,0.6,0.1c0.1,0.1,0.3,0,0.2,0.2c0,0.1-0.1,0-0.1,0.6
			c0,0.3,0.2,0.7,0.3,0.6c0-0.1,0.1-0.1,0.1-0.2c0,0,0,0-0.1,0c0.1-0.2,0.1-0.3,0.2-0.5h-0.1c0-0.1,0.2-0.2,0.2-0.3
			c0,0-0.1-0.1-0.2-0.1c0.1-0.1,0.3-0.2,0.2-0.2c0-0.1-0.1-0.1-0.1-0.1c0.1-0.1,0.2-0.1,0.3-0.2c0,0-0.1-0.1-0.1-0.1h0.2
			c0.1,0,0.2,0,0.3,0c0,0,0-0.1,0-0.2c0.2,0,0.3,0,0.3-0.1c0,0,0.1,0.1,0.1,0.1c0.2,0.1,0.3,0.1,0.5,0.3c0.2-0.1,0.4-0.1,0.6-0.1
			c0.1,0,0.1,0,0.2,0c-0.2,0.2,0.2,0.2,0.3,0.1c0.2,0.2,0.2,0.3,0,0.5c0.1,0.1,0.2,0.2,0.2,0.2c0.2-0.3,0.7-0.4,0.6-0.5
			c-0.1-0.2-0.2-0.2-0.4-0.2c0-0.1,0.3-0.1,0.4-0.1v-0.2c0.3,0.1,0.5,0.4,0.7,0.5c0.2,0,0.4-0.1,0.6-0.2h0c0,0.4,0.4,0.1,0.5,0.1
			c0,0.3-0.6,0.4-0.6,0.5c-0.1,0.2,0,0.2,0.1,0.3c0,0-0.2,0-0.2,0.1c0.1,0.1,0.4,0.1,0.4,0c0.1-0.2-0.1-0.2-0.1-0.3
			c0.1,0,0.1,0.1,0.2,0c0-0.1,0-0.1-0.1-0.1c0.2,0.1,0.2,0.1,0.5,0.1c0.1,0,0-0.1,0-0.1c0.1,0,0.2,0.1,0.3,0.2c0.1,0,0.1-0.1,0-0.3
			c0.1,0,0.2,0.3,0.4,0.3c0.1,0,0.1-0.1,0.1-0.1c0,0,0,0.1,0,0.1c0.2,0.7,0.5,0.1,0.6,0.1c0,0,0,0,0,0c0,0.1-0.1,0.2-0.1,0.3
			c0.1,0.4-0.3,0.5-0.3,0.6c0,1-1,1-1.6,0.9c0.2,0.4,0.6,0.4,0.6,0.7c0,0.1,0.1,0.4,0.1,0.4c0.2,0.1,0.4,0,0.6-0.1
			c0.2,0,0.2,0.1,0.3,0.2c0.2,0,0.4-0.1,0.6-0.1c0.1,0-0.1,0.2,0,0.2c0.1,0,0.1,0,0.1,0c0,0.1-0.1,0.2,0,0.3c0,0,0.1,0.1,0.1,0.1
			c0,0.1-0.1,0-0.2,0.1c0.1,0.1,0.2,0,0.2,0c-0.1,0.1-0.3,0.2-0.3,0.3c0,0,0.1,0,0.2,0c-0.1,0.1-0.2,0.1-0.2,0.2
			c0,0,0.1,0.1,0.1,0.1c-0.1,0.1-0.3,0.1-0.3,0.2c0.1,0,0.1,0.1,0.2,0.1c-0.2,0.1-0.3,0.2-0.5,0.2c0,0.1,0,0.1-0.1,0.2
			c0,0-0.1,0.1-0.2,0.1c0.1-0.2,0-0.4-0.2-0.4c0,0,0,0,0,0.1c0.1,0.2,0,0.4-0.3,0.3c-0.1,0.1-0.5,0.1-0.6,0l0,0c0.2,0,0.2,0,0.4-0.1
			c0-0.1,0-0.1,0-0.1c-0.2,0-0.3,0.1-0.5,0.1c0-0.2,0.1-0.5,0.3-0.5c0.1-0.1,0.1-0.1,0.1-0.2c-0.1-0.1-0.3-0.1-0.4-0.1h-0.1
			c0.1-0.3,0.4-0.3,0.6-0.2c0.1,0,0.2-0.1,0.2-0.1c0.1,0,0.1,0.2,0.2,0.2c0.1,0,0.3-0.1,0.3-0.2c0-0.2-0.4-0.3-0.6-0.2
			c-0.2,0-0.4,0-0.5-0.1c-0.1-0.1-0.3-0.2-0.4-0.3c0,0,0,0,0,0.1c0,0.1-0.1,0.2,0,0.3c0.1,0.1,0.3,0.1,0.3,0.3c0,0.1,0,0.1-0.1,0.2
			c-0.1,0.1-0.2,0.1-0.2,0.2c0,0.2,0,0.2,0.1,0.4c-0.1,0-0.3,0-0.4-0.1c-0.1,0-0.1,0.2-0.2,0.3c-0.1,0-0.1-0.2-0.2-0.2
			c0,0-0.2,0.1-0.1,0.2c-0.1,0-0.1-0.2-0.1-0.2c-0.1,0.1-0.2,0.2-0.2,0.3c-0.1,0-0.1-0.1-0.1-0.2h0c-0.1,0.1-0.2,0.1-0.3,0.1
			c-0.1,0,0-0.1,0-0.1h-0.1c-0.1,0.1-0.4,0.1-0.4,0c0.1-0.1,0.2-0.1,0.2-0.2c0-0.1-0.1-0.1-0.1,0c-0.1,0.1-0.2,0.2-0.3,0.3
			c-0.1,0-0.2,0-0.3-0.1c-0.2,0-0.3,0-0.5,0.1h0c0.1-0.3,0.2-0.4,0.3-0.4c0-0.1,0-0.1,0-0.2c-0.1-0.1-0.2-0.1-0.4,0
			c0-0.1,0.2-0.4,0.4-0.3c0,0,0.1,0,0.1-0.1c-0.1-0.2-0.2-0.2-0.3-0.1c0-0.2,0.3-0.4,0.5-0.2c0,0,0.1-0.1,0.1-0.1
			c0.2,0,0.2,0.1,0.3,0.2c0.1,0,0.2,0.1,0.3,0.1c0.1,0.1,0.2,0.1,0.4,0.2c0.1,0,0.2,0,0.4,0c0.2-0.1,0.2-0.3,0-0.3
			c-0.2,0-0.4,0.1-0.6,0c-0.3-0.1-0.4-0.1-0.4-0.5c-0.3,0.1-0.8,0.3-1,0.3c-0.1,0.1-0.2,0.1-0.3,0.1c-0.1,0.1,0.1,0.2,0.1,0.2
			c-0.1,0.1-0.5,0.2-0.4,0.3c0,0,0,0,0.1,0.1c0,0-0.2,0.1-0.2,0.1c0,0,0,0.1,0.1,0.1c-0.1,0.1-0.2,0-0.3,0.1c-0.1,0-0.2,0.1-0.3,0.1
			c0,0.1,0,0.1,0,0.1c-0.5,0.1-0.6-0.1-0.7-0.1c-0.1,0-0.1,0.1-0.2,0.1c0,0.2-0.1,0.4-0.3,0.4c-0.1,0,0.1-0.1,0-0.2c0,0,0,0-0.1-0.1
			c-0.1,0-0.1,0.3-0.3,0.3c0,0-0.1-0.1-0.1-0.1c-0.2,0.1-0.3,0.2-0.6,0h0c0.5-0.1,0.5-0.5-0.1-0.4h0C10,21.2,10.2,21.2,10.4,21.2z
			 M14.8,17.9L14.8,17.9c0.2,0.3,0.6,0.3,0.9,0.2c0.6-0.1,1.4-0.4,2-0.4c0.2,0,0.6,0.1,0.6,0.3c0,0.2-0.1,0.3-0.2,0.4
			c-0.2,0.1-0.6,0.2-0.8,0.2c-0.1,0-0.6,0-0.7-0.2c-0.1,0-0.2-0.1-0.3-0.1c-0.4,0-0.9,0.2-1.3,0.2C14.8,18.6,14.8,18.1,14.8,17.9z
			 M15.8,17.2c0.2,0.1,0.3,0.3,0.5,0.4c0,0.1-0.5,0.2-0.7,0.2c-0.3,0-0.4-0.1-0.4-0.3C15.2,17.3,15.6,17.1,15.8,17.2z M7,16.3h4.2
			v-2.8h6.5v2.8H22v6h-4.2v4.1l-3.2,1.1l-3.3-1.1v-4.1H7V16.3z"/>
		<path class="st2" d="M7,8h15v5.2H7V8z"/>
		<path class="st3" d="M6.6,7.7v16.8c0,0.8,0.6,1,1.1,1.1l6.8,2.3l6.8-2.3c0.5-0.1,1.1-0.4,1.1-1.1V7.7H6.6z M7,22.6h4v3.8l-3.3-1.1
			C7.3,25.1,7,24.9,7,24.4L7,22.6z M22,22.6H18v3.8l3.3-1.1c0.3-0.1,0.7-0.4,0.7-0.8L22,22.6z M18,13.5H22v2.6H18V13.5z M7,13.5h4
			v2.6H7V13.5z M10.3,21.2c0.2-0.2-0.1-0.3-0.3-0.3c0.1-0.2,0.3-0.3,0.5-0.2c0.1-0.1,0.3-0.1,0.3,0.1c0.1,0.2,0.2,0.2,0.4,0.2
			c0.3,0,0.5-0.2,0.4-0.5c0-0.1,0.1-0.3,0.2-0.4c0,0-0.3,0-0.4-0.3c-0.2,0.1-0.6,0.1-0.7,0c0,0,0.3-0.1,0.2-0.2
			c-0.1-0.1-0.1,0-0.2,0c0-0.1,0.2-0.2,0.2-0.2c-0.1-0.1-0.2,0-0.2,0c0.1-0.1,0.1-0.2,0.1-0.3c0-0.1-0.2-0.1-0.3-0.1
			c0-0.1,0.3-0.2,0.2-0.3c0,0-0.1,0-0.2,0c0,0,0,0,0,0c0.1,0,0.1-0.1,0.1-0.1c0-0.1-0.1-0.1-0.2-0.1c0.1-0.2,0.2-0.2,0.4-0.3
			c0-0.1,0-0.1,0-0.1c-0.1,0-0.2-0.1-0.3-0.2c0,0,0-0.1,0-0.1c0.1,0,0.1,0,0.2,0c0.1,0,0-0.1,0-0.1c-0.1,0-0.1,0-0.2,0
			c-0.1,0,0-0.1-0.1-0.1c-0.2,0-0.2-0.3-0.1-0.4c0,0,0.2,0.3,0.2,0.1c0-0.2-0.2-0.3-0.3-0.3c0.2-0.2,0.5-0.1,0.6,0
			c0.1,0,0.1,0,0.2,0c0,0,0.1-0.1,0-0.1c-0.1-0.1-0.1-0.1-0.2-0.1c0.2-0.1,0.5-0.1,0.6,0.1c0.1,0.1,0.2,0.1,0.2,0.2
			c0,0.1-0.1,0-0.1,0.6c0,0.3,0.2,0.7,0.3,0.6c0-0.1,0.1-0.1,0.1-0.2c0,0-0.1,0-0.1,0c0-0.2,0.1-0.3,0.2-0.5h-0.1
			c0-0.1,0.1-0.2,0.2-0.3c0,0-0.2,0-0.2-0.1c0-0.1,0.2-0.2,0.2-0.2c-0.1-0.1-0.1-0.1-0.1-0.1c0-0.1,0.2-0.1,0.3-0.2
			c0,0-0.1-0.1-0.1-0.1c0,0,0.1,0,0.2,0c0.2,0,0.3,0,0.3,0c0,0,0-0.1,0-0.1c0.2,0,0.3,0,0.3-0.1c0,0,0.1,0.1,0.1,0.1
			c0.2,0.1,0.3,0.1,0.5,0.3c0.2-0.1,0.4-0.1,0.6-0.1c0.1,0,0.1,0,0.2,0c-0.2,0.2,0.2,0.2,0.3,0.1c0.2,0.2,0.2,0.4,0,0.5
			c0.1,0.1,0.2,0.2,0.2,0.2c0.2-0.3,0.7-0.4,0.6-0.5c-0.1-0.2-0.2-0.2-0.4-0.2c0-0.1,0.2-0.1,0.4-0.1c0-0.1,0-0.1,0-0.2
			c0.3,0.1,0.5,0.4,0.7,0.4c0.2,0,0.4-0.1,0.6-0.2h0c0,0.4,0.4,0.1,0.5,0.1c0,0.3-0.6,0.4-0.6,0.5c-0.1,0.1,0.1,0.2,0.1,0.2
			c0,0-0.3,0-0.2,0.1c0.1,0.1,0.4,0.1,0.4,0c0.1-0.2-0.1-0.2-0.1-0.3c0,0,0.1,0,0.2,0c0-0.1,0-0.1,0-0.1c0.1,0,0.2,0.1,0.5,0.1
			c0.1,0,0-0.1,0-0.1c0.1,0,0.2,0.1,0.3,0.2c0.1,0,0.1-0.1,0-0.3c0.1,0,0.2,0.3,0.4,0.4c0.1,0,0.1-0.1,0.1-0.1c0,0,0,0,0,0.1
			c0.2,0.7,0.5,0,0.6,0.1c0,0,0,0,0,0c-0.1,0.1-0.1,0.2-0.1,0.3c0.1,0.4-0.4,0.6-0.3,0.6c0,1-1.1,1-1.6,0.9c0.2,0.3,0.6,0.4,0.6,0.6
			c0,0.1,0.1,0.4,0.1,0.4c0.2,0.1,0.4-0.1,0.6-0.1c0.2,0,0.2,0.2,0.3,0.2c0.2,0,0.4-0.1,0.6-0.2c0.1,0.1-0.1,0.3,0,0.2
			c0,0,0,0,0.1,0c0,0.1-0.1,0.2,0,0.3c0,0,0.1,0,0.1,0.1c0,0.1-0.1,0-0.2,0.1c0,0,0.2,0,0.2,0c-0.1,0.1-0.3,0.2-0.3,0.3
			c0,0,0.1,0,0.2,0c0,0.1-0.2,0.1-0.2,0.2c0,0,0.1,0,0.1,0.1c-0.1,0.1-0.3,0.2-0.3,0.2c0,0,0.1,0.1,0.2,0.1
			c-0.2,0.1-0.3,0.2-0.5,0.2c0,0.1,0,0.1-0.1,0.2c0,0.1-0.2,0.1-0.3,0.1c0.1-0.2,0-0.4-0.2-0.4c0,0,0,0,0,0.1c0.1,0.2,0,0.4-0.3,0.4
			c-0.1,0.1-0.5,0.1-0.7-0.1v-0.1c0.2,0,0.2,0,0.4-0.1c0-0.1,0-0.1,0-0.1c-0.2,0-0.3,0.1-0.5,0.1c0-0.2,0.1-0.5,0.3-0.5
			c0.1-0.2,0.1-0.1,0.1-0.2c-0.1-0.1-0.2-0.1-0.4-0.1c0,0-0.1,0-0.1,0c0.2-0.3,0.4-0.3,0.6-0.2c0.1-0.1,0.2-0.1,0.2-0.1
			c0.1,0,0.1,0.2,0.2,0.2c0.1,0,0.3-0.1,0.3-0.2c0-0.2-0.4-0.3-0.6-0.2c-0.2,0-0.4,0-0.6-0.1c-0.1-0.1-0.3-0.2-0.4-0.3c0,0,0,0,0,0
			c0,0.1-0.1,0.2,0,0.3c0.1,0.1,0.3,0.1,0.3,0.3c0,0.1,0,0.1-0.1,0.2c-0.1,0.1-0.2,0.1-0.2,0.2c0,0.1,0,0.2,0.1,0.3
			c-0.1,0.1-0.3,0-0.4,0c0,0-0.1,0.2-0.1,0.2c-0.1,0-0.2-0.2-0.2-0.2c0,0-0.1,0.1-0.1,0.2c-0.1,0-0.1-0.2-0.2-0.2
			c-0.1,0.1-0.1,0.1-0.1,0.2c-0.1,0-0.1-0.1-0.2-0.1c-0.1,0.1-0.2,0.1-0.3,0.1c0,0,0.1-0.1,0-0.1c0,0,0,0,0,0
			c-0.1,0.1-0.4,0.1-0.4,0c0.1-0.1,0.2-0.1,0.2-0.2c0-0.1,0,0-0.1,0c-0.1,0.1-0.2,0.2-0.3,0.3c-0.1,0.1-0.2,0-0.3-0.1
			c-0.2,0-0.3,0-0.5,0.1c0,0,0,0,0,0c0.1-0.3,0.2-0.4,0.3-0.4c0-0.1,0-0.1-0.1-0.2c-0.1-0.1-0.3,0-0.4,0c-0.1-0.1,0.1-0.5,0.4-0.3
			c0,0,0,0,0.1-0.1c-0.1-0.2-0.2-0.2-0.3-0.1c0-0.2,0.3-0.4,0.5-0.3c0,0,0.1,0,0.1-0.1c0.2,0,0.2,0.1,0.3,0.2c0.1,0,0.2,0.1,0.3,0.1
			c0.1,0.1,0.2,0.1,0.4,0.2c0.1,0,0.2,0,0.3,0c0.2-0.1,0.2-0.3,0.1-0.3c-0.2,0-0.4,0-0.6,0c-0.3-0.1-0.4-0.1-0.4-0.5
			c-0.2,0.1-0.8,0.3-0.9,0.3c-0.1,0.1-0.2,0.1-0.3,0.1c-0.1,0,0.1,0.2,0.1,0.2c0,0.1-0.5,0.3-0.4,0.3c0,0,0.1,0,0.1,0.1
			C13.2,21,13,21,13,21c0,0,0.1,0.1,0.1,0.1c-0.1,0.1-0.2,0.1-0.3,0.1c-0.1,0-0.2,0.1-0.2,0.1c-0.1,0,0,0.1,0,0.1
			c-0.5,0.1-0.6-0.1-0.7-0.1c-0.1,0-0.1,0.1-0.2,0.1c0,0.2-0.1,0.5-0.3,0.5c-0.1-0.1,0.1-0.1,0-0.2c0,0,0,0-0.1,0
			c-0.1,0-0.1,0.3-0.3,0.2c0,0-0.1-0.1-0.1,0c-0.2,0.1-0.4,0.2-0.6,0c0.5-0.1,0.5-0.5-0.1-0.4C10,21.2,10.2,21.2,10.3,21.2z
			 M14.8,17.9C14.8,17.9,14.8,17.9,14.8,17.9c0.2,0.3,0.6,0.3,0.9,0.3c0.6-0.1,1.4-0.4,2-0.4c0.2,0,0.6,0.1,0.6,0.3
			c0,0.2-0.1,0.3-0.2,0.4c-0.2,0.1-0.6,0.2-0.8,0.2c-0.1,0-0.6,0-0.7-0.2c-0.1-0.1-0.2-0.1-0.3-0.1c-0.4,0-0.9,0.2-1.3,0.2
			C14.8,18.6,14.8,18.1,14.8,17.9z M15.8,17.2c0.2,0.1,0.3,0.3,0.5,0.4c0,0-0.5,0.2-0.7,0.2c-0.3,0-0.4-0.1-0.4-0.3
			C15.2,17.3,15.6,17.1,15.8,17.2z M7,16.3h4.2v-2.8h6.5v2.8H22v6h-4.2v4.1l-3.2,1.1l-3.3-1.1v-4.1H7V16.3z"/>
		<path class="st4" d="M6.8,26.8c0,0,0.5-0.2,0.9-0.1l6.7,2.2l6.5-2.2c0.7-0.2,1.2,0,1.2,0.1v2.4c-0.2-0.1-0.7-0.3-1.2-0.1l-6.5,2.1
			L8,29c-0.5-0.1-0.9,0-1.2,0.1L6.8,26.8z"/>
		<path class="st3" d="M21.7,28.3c-0.2,0.1-0.5,0.2-0.7,0.2H21c0-0.1,0.1-0.2,0-0.3c-0.1-0.2-0.2-0.4-0.3-0.6c0-0.1-0.1-0.1-0.2-0.2
			h0c0.2-0.1,0.5-0.1,0.7-0.2c0.1,0,0.1-0.1,0.2,0c0,0.1,0.1,0.1,0.1,0.2c-0.1,0.1-0.2,0-0.2-0.1c-0.1,0-0.3,0-0.4,0.1
			c0,0,0,0,0,0.1c0,0.1,0.1,0.2,0.1,0.3c0.1,0,0.3-0.1,0.3-0.2c0,0,0,0,0.1,0c0.1,0,0,0.1,0.1,0.1c0,0.1,0.1,0.1,0.1,0.1
			c-0.1,0-0.2-0.1-0.2,0c-0.1,0-0.1,0-0.2,0.1c0,0.1,0.1,0.3,0.1,0.4c0.1,0,0.4,0,0.4-0.2c0-0.1,0-0.1,0.1-0.2c0,0,0.1,0,0.1,0.1
			C21.8,28.1,21.8,28.3,21.7,28.3z M20.4,28.8c0,0-0.1,0.1-0.2,0.1c0,0,0-0.1,0-0.1c0.1-0.2-0.2-0.6-0.3-0.9c-0.1,0-0.2,0.1-0.2,0.1
			c-0.1,0,0,0.1-0.1,0.1c-0.1,0,0-0.1-0.1-0.1c0,0-0.1-0.1-0.1-0.1c0,0,0.7-0.2,0.9-0.3c0.1,0,0.1,0.1,0.1,0.1c0,0.1,0.1,0.1,0,0.2
			c-0.1,0-0.1-0.1-0.1-0.1c-0.1-0.1-0.2,0-0.3,0c-0.1,0,0,0,0,0.1c0.1,0.2,0.2,0.6,0.3,0.8c0,0.1,0.1,0.1,0.2,0.1
			C20.6,28.7,20.5,28.7,20.4,28.8z M19.5,29c-0.3-0.2-0.6-0.4-0.9-0.6c0,0,0,0,0,0c0.1,0.2,0.2,0.5,0.3,0.7c0,0,0.1,0,0.1,0.1
			c-0.1,0-0.1,0-0.2,0.1c-0.1,0-0.1,0.1-0.2,0c0.1-0.2-0.1-0.5-0.1-0.7c0-0.1-0.1-0.1-0.1-0.2c-0.1,0-0.2,0.1-0.2,0.2
			c0,0.1-0.1,0-0.1,0c-0.1,0-0.1-0.1-0.2-0.1c-0.1,0-0.2,0.1-0.3,0.1c0,0.1,0.1,0.2,0.1,0.3c0,0,0,0,0.1,0c0.1,0,0.2-0.1,0.2-0.2h0
			c0.1,0.1,0.1,0.1,0.1,0.2c0,0-0.1,0-0.1,0c-0.1,0-0.2,0-0.3,0.1c0.1,0.1,0.1,0.3,0.2,0.4c0,0.1,0.2,0.1,0.2,0
			c0.2-0.1,0.3-0.2,0.3-0.4h0.1c0.1,0.1,0.1,0.2,0.1,0.3c0,0,0,0.1,0,0.1c-0.2,0.1-0.4,0.1-0.7,0.2c0,0-0.1,0-0.2,0.1c0,0,0,0,0,0
			c0,0,0,0,0-0.1c0.1-0.2,0-0.4-0.1-0.6c0-0.1-0.1-0.3-0.2-0.3c0,0,0,0,0,0v0.1c0,0-0.1,0-0.1,0c0,0,0,0,0,0c0,0.1,0.1,0.2,0.1,0.3
			c0.1,0.2,0.1,0.4,0.3,0.6c0,0,0,0,0,0.1c-0.1,0-0.2,0-0.3,0.1c-0.1,0,0-0.1,0-0.2c0-0.1,0-0.2-0.1-0.3c-0.1-0.1-0.1-0.2-0.2-0.4
			c0,0.1,0,0.1-0.1,0.2c0,0.2,0,0.4,0,0.6c0,0,0,0-0.1,0c0,0-0.1,0-0.1-0.1c-0.2-0.1-0.4-0.5-0.6-0.6c0,0,0,0.1,0,0.1
			c0.1,0.2,0.2,0.4,0.3,0.6c0,0.1,0.1,0.1,0.1,0.1c0,0,0,0,0,0c-0.1,0-0.1,0-0.2,0.1c-0.1,0-0.1,0.1-0.2,0c0.1-0.1,0-0.3,0-0.5
			c-0.1-0.2-0.1-0.3-0.2-0.5l0,0c-0.1,0.1-0.1,0.1-0.1,0.2c0,0,0,0,0,0c0-0.1,0-0.1,0-0.2c0-0.1,0.1-0.2,0.2-0.2
			c0.1,0,0.2,0,0.3,0.1c0.2,0.1,0.3,0.3,0.5,0.4h0c0-0.2,0-0.4,0.1-0.6c0-0.1,0.1-0.2,0.2-0.2c0.1,0,0.1-0.1,0.2,0
			c0,0,0.1-0.1,0.1-0.1c0.3-0.1,0.5-0.2,0.7-0.2l0,0c0,0,0,0.1,0.1,0.1c0-0.1,0-0.1,0.1-0.2c0.1-0.1,0.3-0.1,0.4,0
			c0.2,0.1,0.6,0.4,0.7,0.5c0-0.1-0.1-0.3-0.2-0.4c0-0.1-0.1-0.2-0.2-0.2c0,0,0,0,0-0.1c0.1,0,0.3-0.1,0.4-0.1c0,0,0,0.1,0,0.1
			c0,0.2,0.1,0.4,0.2,0.6c0,0.1,0.1,0.2,0.1,0.3C19.7,29,19.6,29,19.5,29z M15.5,29.4c0,0-0.1-0.1-0.3-0.1c-0.1,0-0.2,0.1-0.2,0.1
			c0.1,0.2,0.1,0.3,0.2,0.5c0,0.1,0.2,0.4,0.3,0.4c0,0,0,0,0,0c-0.1,0.1-0.2,0.1-0.3,0.1c0,0-0.1,0.1-0.2,0.1c0-0.1,0.1-0.1,0.1-0.1
			c0-0.1,0-0.2-0.1-0.4c0-0.1-0.1-0.4-0.2-0.4c-0.1,0-0.2,0-0.3,0.1c0,0-0.1,0.1-0.1,0.1h-0.1c0-0.1,0-0.2-0.2-0.3
			c0,0-0.2-0.1-0.3-0.1c-0.1,0-0.1,0.1-0.1,0.2c0,0.1-0.1,0.1,0,0.2c0.1,0,0.2,0.1,0.3,0c0,0,0,0.1,0,0.1c0,0.1,0,0.1-0.1,0.1
			c-0.1,0-0.1-0.1-0.1-0.1c-0.1,0-0.1-0.1-0.2-0.1h-0.1c0,0.1-0.1,0.3-0.1,0.4c0,0.1,0.2,0.1,0.3,0.1c0.2,0,0.3,0,0.4-0.1
			c0,0,0.1-0.1,0.1,0v0c-0.1,0.1-0.1,0.2-0.2,0.3c-0.3-0.1-0.6-0.2-0.9-0.3c0,0,0,0,0,0c0.2,0,0.3-0.4,0.3-0.4
			c0-0.2,0.1-0.3,0.1-0.4c0-0.1-0.1-0.1-0.1-0.1c0.1,0,0.2,0.1,0.3,0.1c0.1,0,0.3,0.1,0.4,0.1c0.1,0,0.2,0.1,0.3,0.1
			c0.3-0.1,0.6-0.2,0.9-0.3C15.5,29.2,15.6,29.4,15.5,29.4L15.5,29.4L15.5,29.4z M13,29c-0.1,0-0.1,0.1-0.2,0.2
			c-0.1,0.1-0.1,0.2-0.1,0.3c-0.1,0.1-0.1,0.3-0.3,0.4c-0.1,0-0.1,0-0.2,0c-0.2,0-0.5-0.1-0.6-0.3c0-0.1,0.1-0.3,0.1-0.4
			c0-0.1,0.2-0.3,0.1-0.5c0,0,0,0,0-0.1c0,0,0.1,0,0.1,0c0.1,0.1,0.2,0.1,0.3,0.1c0,0,0.1,0,0.1,0.1c-0.1,0-0.2,0.1-0.2,0.1
			c-0.1,0.2-0.2,0.4-0.2,0.6c0,0.1,0,0.2,0.1,0.2c0.1,0.1,0.2,0.1,0.3,0.1c0.2,0,0.3-0.4,0.3-0.5c0-0.1,0.1-0.2,0-0.3
			c0,0,0-0.1,0-0.1C12.7,28.9,12.9,28.9,13,29C13,29,13,29,13,29z M11.7,28.6c-0.2,0.1-0.3,0.3-0.3,0.5c-0.1,0.1-0.1,0.2-0.2,0.3
			c0,0,0,0.1,0,0.1c0,0-0.1,0-0.1,0c0,0,0,0,0-0.1c-0.1-0.2-0.1-0.3-0.1-0.5c0-0.1,0-0.3-0.1-0.4c0,0,0-0.1-0.1-0.1
			c-0.1,0.1-0.1,0.3-0.2,0.4c0,0.1-0.1,0.3-0.1,0.4c0,0,0.1,0.1,0,0.1c0,0.1-0.1,0-0.1,0c-0.1,0-0.1,0-0.2-0.1c0,0,0-0.1,0.1-0.1
			c0.1-0.1,0.2-0.2,0.2-0.4c0.1-0.1,0.1-0.2,0.2-0.4c0,0,0-0.1,0-0.1c-0.1,0-0.1,0-0.2,0.1c0,0,0,0,0,0c0-0.1,0.1-0.1,0.1-0.1
			c0.1-0.1,0.2-0.1,0.3-0.1c0.1,0,0.1,0,0.2,0.1c0.1,0.2,0.2,0.5,0.2,0.8c0,0,0,0.1,0,0.1c0.1-0.1,0.1-0.3,0.2-0.4
			c0-0.1,0.1-0.2,0-0.4c0,0,0,0,0,0C11.5,28.4,11.6,28.5,11.7,28.6C11.7,28.6,11.7,28.6,11.7,28.6z M10,29.1c-0.1,0-0.3-0.1-0.4-0.1
			c0,0-0.1-0.1,0-0.1c0,0,0.1,0,0.1,0c0.1-0.1,0.1-0.2,0.1-0.3c-0.1,0-0.2-0.1-0.4-0.1c-0.1,0.1-0.2,0.2-0.1,0.4c0,0.1-0.1,0-0.1,0
			c-0.1,0-0.1,0-0.2-0.1c0,0-0.1,0-0.1-0.1c0-0.1,0.1,0,0.2-0.1c0.2-0.2,0.4-0.4,0.6-0.7c0,0-0.1,0-0.2,0c-0.1,0-0.1,0.1-0.1,0v0
			c0.1-0.1,0.3-0.2,0.4-0.1C10,28,10,28.1,10,28.2V29C10,29,10,29.1,10,29.1C10.1,29.1,10,29.1,10,29.1z M9.8,28.5
			c-0.1,0-0.2-0.1-0.3-0.1c0-0.1,0.2-0.2,0.3-0.3C9.8,28.2,9.8,28.5,9.8,28.5z M9.2,27.8c0,0-0.1,0-0.1,0C9,27.9,8.9,28,8.9,28.1
			c-0.1,0.2-0.2,0.3-0.2,0.5c0,0.1,0.1,0.1,0,0.1c0,0-0.1,0-0.1,0c-0.1,0-0.2-0.1-0.2-0.1c0,0-0.1,0,0,0c0,0,0.2-0.1,0.2-0.2
			c0.1-0.2,0.1-0.3,0.2-0.5h0c-0.3,0.2-0.5,0.4-0.7,0.6c0,0.1-0.1,0-0.1,0c0-0.1,0-0.2,0-0.5c0,0,0-0.3,0-0.4
			c-0.1,0.1-0.1,0.3-0.2,0.4c-0.1,0.1-0.1,0.3,0,0.4c0,0,0,0,0,0c-0.1,0-0.3-0.1-0.4-0.1v0c0.2,0,0.3-0.2,0.3-0.4
			c0.1-0.1,0.2-0.3,0.2-0.4c0,0-0.1-0.1-0.1-0.1c-0.1,0-0.1,0.1-0.2,0.1c0,0,0-0.1,0-0.1c0.1-0.1,0.2-0.1,0.3-0.1
			c0.1,0,0.3,0.1,0.3,0.2c0.1,0.2,0.1,0.5,0.1,0.7v0c0.3-0.2,0.5-0.4,0.7-0.5c0.1,0,0.2,0,0.2,0C9.2,27.7,9.2,27.7,9.2,27.8
			C9.2,27.8,9.2,27.8,9.2,27.8z"/>
		<path class="st3" d="M7,26.9c0,0,0.4-0.2,0.8-0.1l6.7,2.2l6.5-2.2c0.7-0.2,1,0,1,0V29c-0.2-0.1-0.5-0.2-1,0L14.5,31L8,28.9
			c-0.5-0.2-0.8,0-1,0.1V26.9z M6.6,26.7c0-0.1,0.6-0.4,1.4-0.1l6.5,2.1l6.5-2.1c0.8-0.3,1.4,0.1,1.4,0.1v2.8
			c-0.2-0.1-0.8-0.4-1.4-0.2l-6.5,2.1L8,29.2c-0.6-0.2-1.2,0.2-1.4,0.2V26.7z"/>
		<path class="st5" d="M7.1,27c0,0,0.3-0.2,0.7-0.1l6.7,2.2l6.5-2.2c0.6-0.2,1-0.1,1,0v1.9c-0.2-0.1-0.5-0.2-1,0l-6.5,2.1L8,28.8
			c-0.5-0.1-0.7-0.1-0.9,0.1V27z M7.2,27c0,0,0.3-0.1,0.6,0l6.7,2.2l6.5-2.2c0.5-0.2,0.9-0.1,0.9-0.1v1.7c-0.2-0.1-0.5-0.1-0.9,0
			l-6.5,2.1L8,28.7c-0.4-0.1-0.6-0.1-0.8,0V27z M19.1,11.1v1.1L18.7,12v-0.6L19.1,11.1z"/>
		<path class="st3" d="M19,11.3V12l-0.3-0.2v-0.3L19,11.3z"/>
		<path class="st6" d="M19,11.4V12l-0.3-0.2v-0.3L19,11.4z"/>
		<path class="st5" d="M19.1,8.9v1.2l-0.5-0.3V9.2L19.1,8.9z"/>
		<path class="st3" d="M19,9.2v0.6l-0.3-0.2V9.3L19,9.2z"/>
		<path class="st6" d="M19,9.2v0.6l-0.3-0.2V9.4L19,9.2z"/>
		<path class="st7" d="M11,8.7v3.5c1.2,0,2.8-0.2,3-0.2c0.3,0,0.5,0.2,0.6,0.2c0,0,0.2-0.2,0.4-0.2c0.3,0,1.8,0.2,3.1,0.2V8.7h-3.1
			c-0.3,0-0.4,0.2-0.4,0.2c0,0-0.2-0.2-0.4-0.2L11,8.7z"/>
		<path class="st5" d="M9,18.5l0.5-0.3l-0.3,0.5l0.6,0.2l-0.6,0.2l0.3,0.5L9,19.4l-0.2,0.5l-0.2-0.5L8,19.6l0.3-0.5l-0.6-0.2
			l0.6-0.2l-0.3-0.5l0.6,0.3l0.2-0.6L9,18.5z M14.7,14.6l0.6-0.3L15,14.8l0.6,0.2L15,15.2l0.3,0.5l-0.6-0.3L14.5,16l-0.2-0.6
			l-0.6,0.3l0.3-0.5L13.4,15l0.6-0.2l-0.3-0.5l0.6,0.3l0.2-0.5L14.7,14.6z M20.3,18.5l0.6-0.3l-0.3,0.5l0.6,0.2l-0.6,0.2l0.3,0.5
			l-0.6-0.2l-0.2,0.5l-0.2-0.5l-0.6,0.2l0.3-0.5L19,18.9l0.6-0.2l-0.3-0.5l0.6,0.3l0.2-0.6L20.3,18.5z M14.7,23.4l0.6-0.3L15,23.6
			l0.6,0.2L15,24l0.3,0.5l-0.6-0.3l-0.2,0.6l-0.2-0.6l-0.6,0.3L14,24l-0.6-0.2l0.6-0.2l-0.3-0.6l0.6,0.3l0.2-0.6L14.7,23.4z"/>
		<path class="st3" d="M9.1,18.3l0.6-0.2l-0.2,0.6l0.7,0.2l-0.7,0.3l0.2,0.6l-0.6-0.3l-0.3,0.6l-0.3-0.6l-0.7,0.3l0.3-0.6l-0.7-0.3
			l0.7-0.2l-0.3-0.6l0.7,0.2l0.3-0.6L9.1,18.3z M9,18.5l0.5-0.2l-0.3,0.5l0.6,0.2l-0.6,0.2l0.3,0.5L9,19.4l-0.2,0.6l-0.2-0.6
			l-0.6,0.3l0.3-0.5l-0.6-0.2l0.6-0.2l-0.3-0.5l0.5,0.2L8.8,18L9,18.5z"/>
		<path class="st6" d="M14.8,14.2l0.9-0.3l-0.3,0.8l0.9,0.3l-0.9,0.3l0.3,0.8l-0.9-0.3l-0.4,0.8l-0.3-0.8l-0.9,0.3l0.4-0.8L12.7,15
			l0.9-0.3l-0.3-0.8l0.8,0.3l0.3-0.6h0.2L14.8,14.2z M14.8,14.3l0.7-0.3l-0.3,0.7L16,15l-0.8,0.3l0.3,0.7l-0.7-0.3l-0.3,0.7
			l-0.3-0.7L13.4,16l0.3-0.7L13,15l0.7-0.3L13.4,14l0.8,0.3l0.3-0.6h0.1L14.8,14.3z M20.4,18.1l0.9-0.3l-0.3,0.8l0.9,0.3l-0.9,0.3
			l0.3,0.8l-0.9-0.3l-0.3,0.8l-0.4-0.8l-0.9,0.3l0.4-0.8l-0.9-0.3l0.9-0.3l-0.4-0.8l0.8,0.3l0.4-0.8L20.4,18.1z M20.4,18.2l0.8-0.3
			l-0.3,0.7l0.8,0.2l-0.8,0.3l0.3,0.7l-0.8-0.3l-0.3,0.7l-0.3-0.7L19,19.9l0.3-0.7l-0.7-0.3l0.7-0.3L19,18l0.8,0.3l0.3-0.7
			L20.4,18.2z M14.8,23l0.9-0.3l-0.3,0.8l0.9,0.3l-0.9,0.3l0.3,0.8l-0.9-0.3l-0.4,0.8l-0.3-0.8l-0.9,0.3l0.4-0.8l-0.9-0.3l0.9-0.3
			l-0.3-0.8l0.8,0.3l0.3-0.8L14.8,23z M14.8,23.1l0.7-0.3l-0.3,0.7l0.8,0.3l-0.8,0.3l0.3,0.7l-0.7-0.3l-0.3,0.7l-0.3-0.7l-0.8,0.3
			l0.3-0.7L13,23.8l0.7-0.3l-0.3-0.7l0.8,0.3l0.3-0.7L14.8,23.1z"/>
		<path class="st3" d="M14.7,14.4l0.7-0.3l-0.2,0.6l0.6,0.2l-0.6,0.2l0.2,0.6l-0.7-0.2l-0.2,0.6l-0.3-0.6l-0.7,0.2l0.3-0.6L13.2,15
			l0.7-0.2l-0.3-0.6l0.7,0.3l0.3-0.6L14.7,14.4z M14.7,14.6l0.5-0.3l-0.3,0.5l0.6,0.2l-0.6,0.2l0.3,0.5l-0.5-0.2L14.5,16l-0.2-0.6
			l-0.6,0.3l0.3-0.5L13.4,15l0.6-0.2l-0.3-0.5l0.5,0.3l0.2-0.6L14.7,14.6z M20.4,18.3l0.6-0.2l-0.3,0.6l0.7,0.2l-0.7,0.3l0.3,0.6
			l-0.6-0.3l-0.3,0.6l-0.3-0.6l-0.7,0.3l0.3-0.6l-0.7-0.3l0.7-0.2l-0.3-0.6l0.7,0.2l0.3-0.6L20.4,18.3z M20.3,18.5l0.5-0.2l-0.3,0.5
			l0.6,0.2l-0.6,0.2l0.3,0.5l-0.5-0.2l-0.2,0.6l-0.2-0.6l-0.6,0.3l0.3-0.5L19,18.9l0.6-0.2l-0.2-0.5l0.5,0.2l0.2-0.5L20.3,18.5z
			 M14.7,23.2l0.7-0.3l-0.2,0.6l0.6,0.3l-0.6,0.2l0.2,0.6l-0.7-0.2L14.5,25l-0.3-0.6l-0.7,0.3l0.3-0.6l-0.7-0.2l0.7-0.3l-0.3-0.6
			l0.7,0.3l0.3-0.6L14.7,23.2z M14.7,23.4l0.5-0.2l-0.3,0.5l0.6,0.2L14.9,24l0.3,0.5l-0.5-0.3l-0.2,0.6l-0.2-0.6l-0.6,0.3L14,24
			l-0.6-0.2l0.6-0.2l-0.3-0.5l0.5,0.2l0.2-0.6L14.7,23.4z"/>
		<path class="st6" d="M7.1,16.4h4.2v-2.8h6.3v2.8h4.2v5.8h-4.2v4.1l-3.1,1l-3.2-1v-4.1H7.1V16.4z M7.2,16.6h4.2v-2.8h6.1v2.8h4.2
			v5.5h-4.2v4.1l-3,1l-3-1v-4.1H7.2V16.6z"/>
		<path class="st5" d="M10.3,21.2c0.2-0.2-0.1-0.3-0.3-0.3c0.1-0.2,0.3-0.3,0.5-0.2c0.1-0.1,0.3-0.1,0.3,0.1
			c0.1,0.2,0.2,0.2,0.4,0.2c0.3,0,0.5-0.2,0.4-0.5c0-0.1,0.1-0.3,0.2-0.4c0,0-0.3,0-0.4-0.3c-0.2,0.1-0.6,0.1-0.7,0
			c0,0,0.3-0.1,0.2-0.2c-0.1-0.1-0.1,0-0.2,0c0-0.1,0.2-0.2,0.2-0.2c-0.1-0.1-0.2,0-0.2,0c0.1-0.1,0.1-0.2,0.1-0.3
			c0-0.1-0.2-0.1-0.3-0.1c0-0.1,0.3-0.2,0.2-0.3c0,0-0.1,0-0.2,0c0,0,0,0,0,0c0.1,0,0.1-0.1,0.1-0.1c0-0.1-0.1-0.1-0.2-0.1
			c0.1-0.2,0.2-0.2,0.4-0.3c0-0.1,0-0.1,0-0.1c-0.1,0-0.2-0.1-0.3-0.2c0,0,0-0.1,0-0.1c0.1,0,0.1,0,0.2,0c0.1,0,0-0.1,0-0.1
			c-0.1,0-0.1,0-0.2,0c-0.1,0,0-0.1-0.1-0.1c-0.2,0-0.2-0.3-0.1-0.4c0,0,0.2,0.3,0.2,0.1c0-0.2-0.2-0.3-0.3-0.3
			c0.2-0.2,0.5-0.1,0.6,0c0.1,0,0.1,0,0.2,0c0,0,0.1-0.1,0-0.1c-0.1-0.1-0.1-0.1-0.2-0.1c0.2-0.1,0.5-0.1,0.6,0.1
			c0.1,0.1,0.2,0.1,0.2,0.2c0,0.1-0.1,0-0.1,0.6c0,0.3,0.2,0.7,0.3,0.6c0-0.1,0.1-0.1,0.1-0.2c0,0-0.1,0-0.1,0
			c0-0.2,0.1-0.3,0.2-0.5h-0.1c0-0.1,0.1-0.2,0.2-0.3c0,0-0.2,0-0.2-0.1c0-0.1,0.2-0.2,0.2-0.2c-0.1-0.1-0.1-0.1-0.1-0.1
			c0-0.1,0.2-0.1,0.3-0.2c0,0-0.1-0.1-0.1-0.1c0,0,0.1,0,0.2,0c0.2,0,0.3,0,0.3,0c0,0,0-0.1,0-0.1c0.2,0,0.3,0,0.3-0.1
			c0,0,0.1,0.1,0.1,0.1c0.2,0.1,0.3,0.1,0.5,0.3c0.2-0.1,0.4-0.1,0.6-0.1c0.1,0,0.1,0,0.2,0c-0.2,0.2,0.2,0.2,0.3,0.1
			c0.2,0.2,0.2,0.4,0,0.5c0.1,0.1,0.2,0.2,0.2,0.2c0.2-0.3,0.7-0.4,0.6-0.5c-0.1-0.2-0.2-0.2-0.4-0.2c0-0.1,0.2-0.1,0.4-0.1
			c0-0.1,0-0.1,0-0.2c0.3,0.1,0.5,0.4,0.7,0.4c0.2,0,0.4-0.1,0.6-0.2h0c0,0.4,0.4,0.1,0.5,0.1c0,0.3-0.6,0.4-0.6,0.5
			c-0.1,0.1,0.1,0.2,0.1,0.2c0,0-0.3,0-0.2,0.1c0.1,0.1,0.4,0.1,0.4,0c0.1-0.2-0.1-0.2-0.1-0.3c0,0,0.1,0,0.2,0c0-0.1,0-0.1,0-0.1
			c0.1,0,0.2,0.1,0.5,0.1c0.1,0,0-0.1,0-0.1c0.1,0,0.2,0.1,0.3,0.2c0.1,0,0.1-0.1,0-0.3c0.1,0,0.2,0.3,0.4,0.4
			c0.1,0,0.1-0.1,0.1-0.1c0,0,0,0,0,0.1c0.2,0.7,0.5,0,0.6,0.1c0,0,0,0,0,0c-0.1,0.1-0.1,0.2-0.1,0.3c0.1,0.4-0.4,0.6-0.3,0.6
			c0,1-1.1,1-1.6,0.9c0.2,0.3,0.6,0.4,0.6,0.6c0,0.1,0.1,0.4,0.1,0.4c0.2,0.1,0.4-0.1,0.6-0.1c0.2,0,0.2,0.2,0.3,0.2
			c0.2,0,0.4-0.1,0.6-0.2c0.1,0.1-0.1,0.3,0,0.2c0,0,0,0,0.1,0c0,0.1-0.1,0.2,0,0.3c0,0,0.1,0,0.1,0.1c0,0.1-0.1,0-0.2,0.1
			c0,0,0.2,0,0.2,0c-0.1,0.1-0.3,0.2-0.3,0.3c0,0,0.1,0,0.2,0c0,0.1-0.2,0.1-0.2,0.2c0,0,0.1,0,0.1,0.1c-0.1,0.1-0.3,0.2-0.3,0.2
			c0,0,0.1,0.1,0.2,0.1c-0.2,0.1-0.3,0.2-0.5,0.2c0,0.1,0,0.1-0.1,0.2c0,0.1-0.2,0.1-0.3,0.1c0.1-0.2,0-0.4-0.2-0.4c0,0,0,0,0,0.1
			c0.1,0.2,0,0.4-0.3,0.4c-0.1,0.1-0.5,0.1-0.7-0.1v-0.1c0.2,0,0.2,0,0.4-0.1c0-0.1,0-0.1,0-0.1c-0.2,0-0.3,0.1-0.5,0.1
			c0-0.2,0.1-0.5,0.3-0.5c0.1-0.2,0.1-0.1,0.1-0.2c-0.1-0.1-0.2-0.1-0.4-0.1c0,0-0.1,0-0.1,0c0.2-0.3,0.4-0.3,0.6-0.2
			c0.1-0.1,0.2-0.1,0.2-0.1c0.1,0,0.1,0.2,0.2,0.2c0.1,0,0.3-0.1,0.3-0.2c0-0.2-0.4-0.3-0.6-0.2c-0.2,0-0.4,0-0.6-0.1
			c-0.1-0.1-0.3-0.2-0.4-0.3c0,0,0,0,0,0c0,0.1-0.1,0.2,0,0.3c0.1,0.1,0.3,0.1,0.3,0.3c0,0.1,0,0.1-0.1,0.2
			c-0.1,0.1-0.2,0.1-0.2,0.2c0,0.1,0,0.2,0.1,0.3c-0.1,0.1-0.3,0-0.4,0c0,0-0.1,0.2-0.1,0.2c-0.1,0-0.2-0.2-0.2-0.2
			c0,0-0.1,0.1-0.1,0.2c-0.1,0-0.1-0.2-0.2-0.2c-0.1,0.1-0.1,0.1-0.1,0.2c-0.1,0-0.1-0.1-0.2-0.1c-0.1,0.1-0.2,0.1-0.3,0.1
			c0,0,0.1-0.1,0-0.1c0,0,0,0,0,0c-0.1,0.1-0.4,0.1-0.4,0c0.1-0.1,0.2-0.1,0.2-0.2c0-0.1,0,0-0.1,0c-0.1,0.1-0.2,0.2-0.3,0.3
			c-0.1,0.1-0.2,0-0.3-0.1c-0.2,0-0.3,0-0.5,0.1c0,0,0,0,0,0c0.1-0.3,0.2-0.4,0.3-0.4c0-0.1,0-0.1-0.1-0.2c-0.1-0.1-0.3,0-0.4,0
			c-0.1-0.1,0.1-0.5,0.4-0.3c0,0,0,0,0.1-0.1c-0.1-0.2-0.2-0.2-0.3-0.1c0-0.2,0.3-0.4,0.5-0.3c0,0,0.1,0,0.1-0.1
			c0.2,0,0.2,0.1,0.3,0.2c0.1,0,0.2,0.1,0.3,0.1c0.1,0.1,0.2,0.1,0.4,0.2c0.1,0,0.2,0,0.3,0c0.2-0.1,0.2-0.3,0.1-0.3
			c-0.2,0-0.4,0-0.6,0c-0.3-0.1-0.4-0.1-0.4-0.5c-0.2,0.1-0.8,0.3-0.9,0.3c-0.1,0.1-0.2,0.1-0.3,0.1c-0.1,0,0.1,0.2,0.1,0.2
			c0,0.1-0.5,0.3-0.4,0.3c0,0,0.1,0,0.1,0.1C13.2,21,13,21,13,21c0,0,0.1,0.1,0.1,0.1c-0.1,0.1-0.2,0.1-0.3,0.1
			c-0.1,0-0.2,0.1-0.2,0.1c-0.1,0,0,0.1,0,0.1c-0.5,0.1-0.6-0.1-0.7-0.1c-0.1,0-0.1,0.1-0.2,0.1c0,0.2-0.1,0.5-0.3,0.5
			c-0.1-0.1,0.1-0.1,0-0.2c0,0,0,0-0.1,0c-0.1,0-0.1,0.3-0.3,0.2c0,0-0.1-0.1-0.1,0c-0.2,0.1-0.4,0.2-0.6,0c0.5-0.1,0.5-0.5-0.1-0.4
			C10,21.2,10.2,21.2,10.3,21.2z M14.8,17.9C14.8,17.9,14.8,17.9,14.8,17.9c0.2,0.3,0.6,0.3,0.9,0.3c0.6-0.1,1.4-0.4,2-0.4
			c0.2,0,0.6,0.1,0.6,0.3c0,0.2-0.1,0.3-0.2,0.4c-0.2,0.1-0.6,0.2-0.8,0.2c-0.1,0-0.6,0-0.7-0.2c-0.1-0.1-0.2-0.1-0.3-0.1
			c-0.4,0-0.9,0.2-1.3,0.2C14.8,18.6,14.8,18.1,14.8,17.9z M15.8,17.2c0.2,0.1,0.3,0.3,0.5,0.4c0,0-0.5,0.2-0.7,0.2
			c-0.3,0-0.4-0.1-0.4-0.3C15.2,17.3,15.6,17.1,15.8,17.2z"/>
		<path class="st8" d="M17.4,21c0,0,0,0.1-0.1,0.1c-0.1-0.1-0.1-0.1-0.3,0C17.1,21,17.3,20.9,17.4,21z M17.3,21.5
			C17.3,21.5,17.3,21.5,17.3,21.5c0,0.1,0,0.1,0,0.1c0,0.1-0.1,0-0.2,0.1C17.1,21.7,17.2,21.5,17.3,21.5z M17.5,21.9
			c0,0,0.1,0.1,0.1,0.1c0,0.1-0.3,0.1-0.3,0C17.4,22,17.5,22,17.5,21.9z M14,21.4c0,0,0,0.1,0,0.1h0c-0.1,0-0.2,0-0.3,0.1
			C13.7,21.5,13.9,21.3,14,21.4z M13.9,20.9c0,0,0,0,0,0.1h-0.1c-0.1,0-0.2,0-0.2,0C13.7,20.9,13.8,20.9,13.9,20.9z M14.1,20.4
			c0,0.1-0.1,0.1-0.1,0.1c0,0,0,0,0,0c-0.1,0-0.1-0.1-0.2-0.1C13.9,20.4,14,20.4,14.1,20.4z M13.1,17.8
			C13.1,17.8,13.1,17.8,13.1,17.8c0,0.1,0,0.2,0,0.3c0,0,0,0,0,0c0.1-0.1,0.2-0.4,0.2-0.3c0.1,0.2-0.2,0.5-0.3,0.5
			C13,18.3,12.9,18,13.1,17.8z M11.3,16.7L11.3,16.7c-0.1,0-0.1,0.1-0.2,0c0-0.1-0.1-0.1-0.1-0.1C11.1,16.6,11.2,16.6,11.3,16.7z
			 M10.5,16.8c0.1,0,0.2,0,0.3,0.1c0,0-0.1,0.1-0.1,0.1C10.6,16.8,10.5,16.8,10.5,16.8z M10.4,17.2c0,0,0,0.1,0.1,0.1
			c0,0,0,0.1,0,0.1C10.5,17.4,10.4,17.2,10.4,17.2z M10.5,20.7c0,0,0,0.1-0.1,0.1c0,0-0.1,0-0.2,0C10.3,20.7,10.4,20.7,10.5,20.7z
			 M10.5,21.7c0,0,0.1,0.1,0.1,0.1c-0.1,0.1-0.3,0.1-0.3,0C10.4,21.8,10.5,21.8,10.5,21.7z M10.4,21.2v0.1c-0.1,0-0.1,0-0.2,0
			C10.1,21.2,10.3,21.2,10.4,21.2z"/>
		<path class="st3" d="M14.7,10.8L14.7,10.8l0,1.2h0V10.8z"/>
		<path class="st5" d="M10.7,12.4V8.7H11v3.5c1.1,0,2.7-0.2,2.9-0.2c0.4,0,0.6,0.2,0.7,0.2c0-0.1,0.2-0.3,0.4-0.2
			c1,0.1,2,0.2,3.1,0.2V8.7h0.3v3.7L10.7,12.4L10.7,12.4z"/>
		<path class="st3" d="M14.7,8.7L14.7,8.7l0,1.3h0V8.7z M17.7,10.8c-0.1,0-0.2,0-0.4,0c0-0.1,0.1-0.1,0-0.2c0,0,0-0.1-0.1-0.1
			c-0.1,0-0.2,0-0.3,0c0,0,0,0.1,0,0.1c0,0.1,0,0.1,0.1,0.2l0,0h-0.3c-0.2,0-0.3,0-0.3,0c0.1-0.1,0.1-0.2,0.1-0.4
			c0-0.1,0-0.3-0.1-0.4c0,0,0,0,0,0c0,0,0,0,0.1,0h0.3l0,0c0,0-0.1,0-0.1,0.1c-0.1,0.1-0.1,0.2-0.1,0.3c0,0.2,0,0.4,0.1,0.4h0
			c0.2-0.1,0.2-0.5,0.3-0.7c0-0.1-0.1,0-0.1,0c-0.1,0-0.1,0-0.1,0c0,0,0.1-0.1,0.1-0.1c0,0,0.1,0,0.1-0.1c0.1,0,0.2,0,0.3,0.1
			c0.1,0.1,0.1,0.2,0.1,0.3C17.5,10.5,17.6,10.7,17.7,10.8C17.7,10.8,17.7,10.8,17.7,10.8z M17,10.4c0-0.1,0.1-0.1,0.1-0.2
			c0,0,0.1,0.2,0.1,0.2H17z M16.3,10.3C16.2,10.3,16.2,10.2,16.3,10.3c-0.1-0.1-0.1-0.2-0.2-0.2H16c0,0.2-0.1,0.6,0.1,0.8
			c0,0.1-0.1,0-0.1,0h-0.3c0,0,0-0.1,0-0.1c0.1-0.2,0.1-0.4,0.1-0.6c0,0-0.1,0-0.1,0c-0.1,0-0.2,0.1-0.2,0.2c0,0,0,0,0,0V10h0.8v0.1
			C16.3,10.2,16.3,10.2,16.3,10.3z"/>
		<path class="st3" d="M15.4,10.1C15.3,10.1,15.3,10.1,15.4,10.1c-0.1,0.2-0.1,0.4-0.1,0.6v0.1c0,0,0,0-0.1,0
			c-0.2-0.2-0.3-0.4-0.5-0.6c0,0,0,0,0,0c0,0.1,0,0.3,0,0.5c0,0.1,0.1,0.1,0.1,0.1c-0.1,0-0.2,0-0.3,0h-0.1c0.2-0.1,0.1-0.5,0.1-0.7
			c0,0-0.1,0-0.1,0c-0.1,0-0.1,0.1-0.1,0.2h0c-0.1,0-0.1-0.1-0.1-0.1c0,0-0.1-0.1-0.1-0.1h-0.3v0.2c0,0,0.1,0,0.2,0
			c0,0,0.1-0.1,0.1-0.1v0.2c0,0,0,0-0.1,0c0,0-0.1-0.1-0.2-0.1c0,0-0.1,0-0.1,0v0.3c0,0.1,0.2,0.1,0.3,0.1c0.1,0,0.1,0,0.1-0.1
			c0,0,0-0.1,0.1-0.1v0v0.2c0,0,0,0.1-0.1,0.1h-0.7c0.2-0.1,0.1-0.6,0.1-0.7c0,0-0.1-0.1-0.1-0.1c0,0,0,0,0.1,0c0.2,0,0.4,0,0.6,0
			c0,0,0.1,0,0.1,0.1c0,0,0,0.1,0,0.1c0,0,0.1-0.1,0.1-0.1c0.1-0.1,0.1-0.1,0.2,0c0.3,0.1,0.4,0.4,0.5,0.5h0c0-0.1,0-0.2,0-0.4
			c0-0.1-0.1-0.1-0.1-0.1c0,0,0,0,0,0L15.4,10.1C15.4,10,15.4,10,15.4,10.1C15.4,10,15.4,10,15.4,10.1z M13.5,10.1
			c-0.1,0.1-0.1,0.2-0.1,0.4c0,0.1,0,0.3,0.1,0.4v0c-0.1,0-0.2,0-0.3,0c0,0,0,0,0-0.1c0,0,0.1-0.1,0.1-0.1c0-0.1,0-0.4,0-0.5
			c0-0.1,0-0.1-0.1-0.1c0,0,0,0,0,0c0,0,0,0,0,0C13.3,10,13.4,10,13.5,10.1C13.6,10,13.5,10.1,13.5,10.1z M12.8,10.8
			c-0.1,0-0.4,0-0.5-0.1c-0.1-0.1-0.2-0.3-0.1-0.4c0-0.1,0.1-0.2,0.2-0.3c0.1,0,0.3-0.1,0.4,0c0,0,0.1,0,0.1,0c0,0,0.1,0,0.1,0l0,0
			c0,0.1,0,0.1,0,0.2c0,0,0,0.1,0,0.1c-0.1,0-0.1-0.1-0.1-0.1c-0.1-0.1-0.1-0.2-0.3-0.2c-0.1,0-0.2,0-0.3,0.1
			c-0.1,0.1-0.1,0.4,0,0.5C12.5,10.7,12.6,10.7,12.8,10.8c0-0.1,0.1-0.2,0.1-0.3H13c0,0,0,0,0,0.1C13,10.7,12.9,10.7,12.8,10.8z
			 M12.1,10.3c-0.1-0.1-0.1-0.2-0.2-0.2c0,0-0.1,0-0.1,0c0,0.1,0,0.1,0,0.2c0.1,0.1,0.4,0.2,0.4,0.4c0,0.1-0.1,0.2-0.2,0.2
			c-0.2,0-0.3,0-0.4-0.1h0c0,0.1-0.1,0.1-0.1,0.1h0c0-0.1,0.1-0.3,0.1-0.4c0,0,0,0,0,0c0,0.1,0.2,0.2,0.3,0.2c0.1,0,0.2-0.1,0.1-0.2
			c-0.1-0.1-0.2-0.1-0.3-0.2c0-0.1,0-0.1,0-0.2C11.7,10,11.9,10,12,10c0.1,0,0.1,0,0.1,0C12.1,10,12.1,10.3,12.1,10.3z"/>
		<path class="st1" d="M10.4,12.7v-4h0.3v3.8h7.7V8.7h0.3v4H10.4z"/>
		<path class="st5" d="M10.3,11.2v0.8l-0.8-0.4L10.3,11.2z M10.3,9.1v0.8L9.5,9.5L10.3,9.1z"/>
		<path class="st3" d="M10.1,11.5c0.1,0,0.2,0.1,0.2,0.2c0,0.1-0.1,0.1-0.2,0.1c-0.1,0-0.2-0.1-0.2-0.1C9.9,11.6,10,11.5,10.1,11.5z
			"/>
		<path class="st6" d="M10.1,11.5c0.1,0,0.2,0.1,0.2,0.1c0,0.1-0.1,0.1-0.2,0.1c-0.1,0-0.2-0.1-0.2-0.1C9.9,11.6,10,11.5,10.1,11.5z
			"/>
		<path class="st3" d="M10.1,9.3c0.1,0,0.2,0.1,0.2,0.1c0,0.1-0.1,0.2-0.2,0.2c-0.1,0-0.2-0.1-0.2-0.2C9.9,9.4,10,9.3,10.1,9.3z"/>
		<path class="st6" d="M10.1,9.3c0.1,0,0.2,0.1,0.2,0.1c0,0.1-0.1,0.1-0.2,0.1c-0.1,0-0.2-0.1-0.2-0.1C9.9,9.4,10,9.3,10.1,9.3z"/>
		<path class="st3" d="M14.8,16.5C14.8,16.5,14.7,16.4,14.8,16.5c-0.2,0-0.6,0-0.4-0.2c0,0-0.1,0-0.2,0c-0.2,0-0.4,0-0.6,0.1
			c-0.1-0.1-0.3-0.2-0.5-0.3c-0.1,0-0.1-0.1-0.1-0.1c0,0.1-0.1,0.2-0.3,0.1c0,0.1,0.1,0.1,0,0.1c0,0-0.1,0-0.3,0c-0.1,0-0.2,0-0.2,0
			c0,0,0.1,0.1,0.1,0.1c-0.1,0.1-0.3,0.2-0.3,0.2c0,0.1,0.1,0.1,0.1,0.1c0,0-0.2,0.2-0.2,0.2c0,0.1,0.2,0.1,0.2,0.1
			c-0.1,0.1-0.2,0.2-0.2,0.3h0.1c-0.1,0.1-0.2,0.3-0.2,0.5c0,0,0.1,0,0.1,0c0,0.1-0.1,0.1-0.1,0.2c-0.1,0-0.3-0.3-0.3-0.6
			c0-0.6,0.1-0.5,0.1-0.6s-0.2-0.1-0.2-0.2c-0.1-0.2-0.5-0.3-0.6-0.1c0.1,0,0.2,0,0.2,0.1c0,0.1,0,0.1,0,0.1c-0.1,0-0.1,0-0.2,0
			c-0.1-0.1-0.4-0.2-0.6,0c0.2,0,0.3,0.1,0.3,0.3c0,0.2-0.2-0.1-0.2-0.1c-0.1,0.1-0.1,0.4,0.1,0.4c0.1,0,0,0.1,0.1,0.1
			c0.1,0.1,0.1,0,0.2,0c0,0,0.1,0.1,0,0.1c-0.1,0-0.1,0-0.2,0c0,0,0,0.1,0,0.1c0.1,0.1,0.2,0.2,0.3,0.2c0.1,0,0.1,0.1,0,0.1
			c-0.2,0.1-0.3,0.1-0.4,0.3c0.1,0,0.2,0,0.2,0.1c0,0.1-0.1,0.1-0.1,0.1c0,0,0,0,0,0c0.1,0,0.2,0,0.2,0c0.1,0.1-0.2,0.2-0.2,0.3
			c0.1,0,0.3,0,0.3,0.1c0,0.1-0.1,0.2-0.1,0.3c0.1,0,0.2-0.1,0.2,0c0,0-0.2,0.1-0.2,0.2c0.1,0,0.1-0.1,0.2,0
			c0.1,0.1-0.2,0.2-0.2,0.2c0.1,0.1,0.5,0.1,0.7,0c0.1,0.3,0.4,0.3,0.4,0.3c-0.1,0.1-0.2,0.3-0.2,0.4c0.1,0.3-0.1,0.5-0.4,0.5
			c-0.2,0-0.3,0-0.4-0.2c0-0.2-0.2-0.2-0.3-0.1c-0.2-0.1-0.4,0.1-0.5,0.2c0.1,0,0.5,0.1,0.3,0.3c-0.1,0-0.3,0.1-0.3,0.3
			c0.7-0.1,0.6,0.3,0.1,0.4c0.3,0.2,0.4,0.1,0.6,0c0,0,0.1,0,0.1,0c0.2,0.1,0.2-0.2,0.3-0.2c0,0,0.1,0,0.1,0c0.1,0.1-0.1,0.2,0,0.2
			c0.2,0,0.4-0.3,0.3-0.5c0.1-0.1,0.1-0.1,0.2-0.1c0.1,0,0.2,0.2,0.7,0.1c0,0-0.1-0.1,0-0.1c0.1,0,0.2-0.1,0.2-0.1
			c0.1-0.1,0.3-0.1,0.3-0.1c0,0-0.1,0-0.1-0.1c0,0,0.2,0,0.2-0.1c0,0-0.1,0-0.1-0.1c0,0,0.4-0.2,0.4-0.3c0,0-0.2-0.2-0.1-0.2
			c0.1,0,0.2-0.1,0.3-0.1c0.1,0,0.7-0.2,0.9-0.3c0,0.2,0,0.3,0.1,0.4l0-0.6c-0.1,0-0.1,0.1-0.2,0.1h0c0.1-0.1,0.2-0.2,0.2-0.3
			c-0.2,0.1-0.4,0.3-0.7,0.4c-0.1,0-0.1,0-0.1,0c0-0.1,0.1-0.1,0.2-0.3c0,0-0.1,0-0.1,0c-0.4,0.2-0.5,0.5-0.9,0.4
			c0,0.1,0.1,0.2,0.3,0.2c-0.1,0.1-0.4,0.1-0.6,0c0,0.1,0.2,0.2,0.3,0.3c-0.2,0.1-0.5,0-0.6-0.1v0c0.1,0.2,0.5,0.2,0.7,0.2
			c-0.3,0.1-0.5,0.2-0.8,0c0,0.1,0.2,0.3,0.3,0.3c0,0.1-0.4,0-0.6-0.1c-0.1,0.1,0.2,0.3,0.3,0.3c-0.2,0.1-0.6-0.1-0.5,0c0,0,0,0,0,0
			c0,0.1,0.2,0.2,0.3,0.2c-0.2,0.1-0.4,0-0.5-0.1c-0.1,0-0.3,0.2-0.3,0.2v0.2c0,0.1-0.1,0.2-0.2,0.2c0,0,0-0.2-0.1-0.2
			c-0.3-0.1-0.2,0.2-0.3,0.2c-0.1,0.1-0.3-0.1-0.3-0.2c0,0,0-0.1,0.1-0.1c0.1,0,0.1-0.1,0.1-0.1c0-0.1,0-0.1-0.2-0.1
			c0,0,0,0.1-0.1,0.1c-0.1-0.1-0.1-0.3-0.1-0.3c0.1,0,0.1,0.1,0.2,0.1c0.1-0.1,0.1-0.2,0-0.2c-0.1,0-0.2,0.1-0.2,0
			c0-0.1,0.1-0.3,0.2-0.3c0.1,0,0.1,0.2,0.2,0.3c0.2,0.1,0.5,0.1,0.6,0.1c0.6-0.2,0.3-0.6,0.5-0.7c0.4-0.2,0.2-0.3,0.3-0.4
			c0,0,0,0.2,0.2,0.2c0-0.1,0.1-0.3,0.2-0.2c0.1,0.1,0.2,0.2,0.2,0.2v-0.3c0.2,0.1,0.4,0.1,0.4,0.1c-0.1,0-0.2-0.2-0.1-0.2
			c0.1,0.1,0.4,0,0.3-0.1c0,0-0.1-0.1-0.1-0.1c0-0.1,0.2-0.1,0.2-0.1c0-0.1-0.1-0.3,0-0.4c0.1,0.1,0.1,0.1,0.2,0.1l0,0
			c0-0.1-0.1-0.2,0-0.3c0.3,0,0.5,0,0.7-0.1v-1.1c0,0-0.1,0-0.1-0.1c0-0.1-0.2-0.2-0.3-0.2c0.1-0.1,0-0.1,0-0.2c0.1,0,0.2,0,0.2,0
			c0.1,0.1,0,0.2,0.2,0.5V17c0,0,0,0-0.1-0.1c0,0,0.1-0.1,0.1-0.1L14.8,16.5L14.8,16.5z M14.8,20.6c-0.1,0-0.2-0.1-0.2-0.1
			c-0.1-0.1-0.1-0.2-0.3-0.2c0,0-0.1,0-0.1,0.1c-0.2-0.1-0.5,0.1-0.5,0.3c0.1-0.1,0.3-0.1,0.3,0.1c0,0,0,0.1-0.1,0.1
			c-0.3-0.1-0.5,0.3-0.4,0.3c0.1-0.1,0.3-0.1,0.4,0c0.1,0.1,0.1,0.1,0.1,0.2c-0.2,0.1-0.3,0.1-0.3,0.4c0,0,0,0,0,0
			c0.2-0.1,0.3-0.1,0.5-0.1c0.1,0.1,0.2,0.1,0.3,0.1c0.1-0.1,0.2-0.2,0.3-0.3c0,0,0.1,0,0.1,0c0,0.1-0.1,0.2-0.2,0.2
			c0,0,0.1,0.1,0.2,0.1v-0.4c-0.2,0-0.3,0.1-0.4,0.2c-0.1,0-0.1,0.1-0.2,0.1c-0.1,0-0.2-0.3-0.1-0.3c0,0,0.1,0,0.1,0
			c0,0,0,0,0.1-0.1c0,0,0,0,0-0.1c0,0,0,0,0-0.1s-0.1,0-0.1,0c-0.1,0-0.1,0.1-0.2,0.1c0-0.1,0-0.3,0.1-0.3c0,0,0.1,0.1,0.1,0.1
			c0.2,0,0.1-0.1,0.1-0.2c-0.1,0-0.2,0-0.2,0c0-0.1,0.1-0.2,0.1-0.2c0.1,0,0.1,0.1,0.2,0.2C14.6,20.6,14.7,20.6,14.8,20.6L14.8,20.6
			L14.8,20.6z M10.7,17.3c0.1-0.1,0.2,0.1,0.2,0c0.1-0.2-0.2-0.1-0.2-0.2c0-0.1,0.1-0.1,0.1-0.1s0.1-0.1,0.2-0.1
			c0.1,0-0.1,0.2,0.2,0.2c0.2-0.1,0-0.2,0-0.2c0-0.1,0.3-0.1,0.4,0c0,0,0,0.1,0,0.1c0,0.1-0.1,0.1-0.1,0.2c0,0.3-0.1,0.7,0,0.9
			c0.1,0.1,0.2,0.1,0.2,0.1c0.1,0.1,0.3,0.5,0.3,0.5c-0.1,0.1-0.1,0.1-0.2,0.2c0,0,0.1,0.1,0.1,0.1c0.1,0-0.2,0.2-0.3,0.3
			c0,0,0,0,0,0c0.1,0.1,0.2,0.1,0.3,0.1c-0.1,0.1-0.1,0.1-0.2,0.3c0,0.1,0.3,0,0.4,0c0,0.3-0.5,0.3-0.6,0h0
			c-0.3,0.2-0.5,0.1-0.5,0.1c0.3-0.1,0.2-0.2,0.4-0.4c-0.1-0.1-0.3,0.1-0.4,0.1c0.1,0,0.1-0.1,0.2-0.2c0.1-0.1,0.2-0.2,0.2-0.2
			C11.3,19,11,19.2,11,19.2c0.1-0.3,0.3-0.3,0.3-0.5h0c-0.2,0.2-0.4,0.2-0.5,0.2c0-0.1,0.5-0.2,0.5-0.4c0-0.1-0.1,0.1-0.2,0.1
			c-0.2,0-0.3,0.1-0.3,0c0.1-0.1,0.2-0.1,0.3-0.3v0c-0.1,0-0.3,0.1-0.4,0.1l0,0c0.2-0.1,0.4-0.1,0.4-0.3c0,0,0-0.1,0-0.1
			c0,0,0,0-0.1-0.1c-0.1,0-0.3,0-0.3-0.1c0.2,0,0.3-0.1,0.3-0.2c-0.1-0.1-0.2-0.1-0.3-0.1C10.6,17.5,10.7,17.3,10.7,17.3z
			 M10.4,17.2c0,0,0,0.1,0.1,0.1c0,0,0,0.1,0,0.1C10.5,17.4,10.4,17.2,10.4,17.2z M10.5,16.8c0.1,0,0.2,0,0.3,0.1
			c0,0-0.1,0.1-0.1,0.1C10.6,16.8,10.5,16.8,10.5,16.8z M11.3,16.7L11.3,16.7c-0.1,0-0.1,0.1-0.2,0c0-0.1-0.1-0.1-0.1-0.1
			C11.1,16.6,11.2,16.6,11.3,16.7z M10.4,21.2v0.1c-0.1,0-0.1,0-0.2,0C10.1,21.2,10.3,21.2,10.4,21.2z M10.5,20.7c0,0,0,0.1-0.1,0.1
			c0,0-0.1,0-0.2,0C10.3,20.7,10.4,20.7,10.5,20.7z M10.5,21.7c0,0,0.1,0.1,0.1,0.1c-0.1,0.1-0.3,0.1-0.3,0
			C10.4,21.8,10.5,21.8,10.5,21.7z M12.5,18.6c0,0.1,0,0.3-0.1,0.5c-0.1,0.2-0.4,0.2-0.6,0.2C12.1,19.1,12.2,18.8,12.5,18.6z
			 M12.6,18.3C12.7,18.3,12.7,18.3,12.6,18.3c0.1-0.1,0.1-0.1,0.2-0.1c0,0.1,0.1,0.2,0.1,0.2c-0.1,0.1-0.2,0.5-0.2,0.7
			c0,0.2-0.4,0.5-0.8,0.4C12.8,19.1,12.4,18.7,12.6,18.3z M12.7,17.8c0.1,0.1,0.1,0.1,0.2,0.2c0,0,0,0.1,0,0.1c0,0.1-0.1,0-0.1,0.1
			c-0.3,0.1-0.2,0.5-0.7,0.8C12.3,18.6,12.2,18.1,12.7,17.8z M12.6,17.3c0,0.1,0,0.1-0.1,0.2c-0.2,0.1-0.2,0.3-0.5,0.4
			c0,0-0.1,0-0.1,0C12,17.5,12.4,17.3,12.6,17.3z M12.5,17.6c0,0.1,0.1,0.1,0.1,0.2c-0.3,0.2-0.3,0.4-0.6,0.4c0,0-0.1,0,0,0
			C12.4,17.8,12.3,17.7,12.5,17.6z M12.6,17C12.6,17,12.6,17.1,12.6,17c0.1,0.1,0.1,0.1,0.1,0.1c-0.1,0.1-0.2,0.1-0.5,0.1
			c0,0,0,0,0,0C12.2,17.2,12.5,17.1,12.6,17z M12.2,17c0.1-0.1,0.2-0.1,0.3-0.1V17C12.4,17,12.3,17,12.2,17C12.1,17,12.2,17,12.2,17
			z M12.6,16.7c-0.1,0-0.1,0.1-0.1,0.1c-0.1,0-0.2,0-0.3-0.1C12.5,16.5,12.7,16.6,12.6,16.7z M12.9,16.6c0,0-0.1-0.1-0.2,0
			c0,0-0.1,0-0.1-0.1c0-0.1-0.1,0-0.1-0.1C12.7,16.4,12.8,16.4,12.9,16.6z M12.6,19.3c0,0.1,0,0.2,0.1,0.3c-0.1,0-0.1,0-0.2,0.1
			c0,0-0.1-0.2-0.1-0.3C12.5,19.4,12.6,19.4,12.6,19.3z M12.7,16.7c0.1,0,0.2,0,0.3,0.1c0.1,0,0.3,0,0.3,0.1c0.1,0,0.1,0.1,0.1,0.1
			c0,0.1,0,0.1-0.1,0.2c-0.1,0-0.4-0.3-0.4-0.3c0,0,0,0.1-0.2,0.1C12.7,17,12.6,16.8,12.7,16.7z M12.8,17.2c0-0.1,0-0.1,0.1-0.1
			c0,0,0.1-0.1,0.1-0.1c0,0,0.1,0.1,0.1,0.1c0,0.1-0.1,0.1-0.1,0.2c0,0,0,0,0.1,0c0.1,0,0.1-0.1,0.1-0.1h0c0,0,0,0,0.1,0
			c0,0,0,0.1-0.1,0.1c0,0.1-0.1,0.1-0.2,0.1c0,0-0.1,0-0.1,0.1c0,0,0,0.1,0.1,0.1c0,0,0.1,0,0.1,0c0,0,0,0.1-0.1,0.1
			c0,0-0.1,0-0.1,0c0,0-0.1,0-0.1-0.1c0-0.1,0-0.1,0-0.1c0,0-0.1,0-0.1,0c0,0,0,0,0,0.1c0,0,0,0,0.1,0.1c0.1,0,0.1,0.1,0.1,0.1
			c0,0,0.1,0.1,0.1,0.1c0,0,0,0.1,0,0.1c0,0,0,0-0.1-0.1c-0.1-0.1-0.1-0.2-0.2-0.3C12.7,17.4,12.8,17.3,12.8,17.2z M12.7,19.1
			c0-0.1,0.1-0.4,0.2-0.6v0c0.1,0,0.1,0,0.2-0.1c0,0.5-0.3,0.4-0.1,1.4C12.7,19.7,12.7,19.3,12.7,19.1z M12.9,16.3
			c0.2,0.1,0.4,0.3,0.4,0.4H13C13,16.6,12.9,16.5,12.9,16.3z M13,17.8C13,17.8,13.1,17.8,13,17.8c0,0.1,0,0.2,0,0.3c0,0,0,0,0,0
			c0.1-0.1,0.2-0.4,0.2-0.3c0.1,0.2-0.2,0.5-0.3,0.5C13,18.3,12.9,18,13,17.8z M13.2,18.4c0,0,0.1-0.1,0.1-0.1
			c0.2,0.4-0.3,1,0.1,1.3c-0.2,0-0.3-0.2-0.3-0.1c0,0.1,0.1,0.2,0.1,0.4c-0.2,0-0.3-0.3-0.2-0.6C13,18.8,13.2,18.7,13.2,18.4z
			 M13.3,17.3L13.3,17.3c0.1,0-0.1,0.1,0,0.3c0,0.1,0.1,0.1,0,0.1c0,0,0,0,0,0l-0.1-0.1c-0.1,0-0.1,0-0.2,0v-0.1
			C13.2,17.5,13.3,17.4,13.3,17.3z M13.2,16.3c0.2,0.1,0.3,0.2,0.4,0.3c0,0.1-0.1,0.1-0.1,0.3c0,0,0-0.1-0.2-0.1
			C13.3,16.6,13.3,16.4,13.2,16.3z M13.3,17.7C13.3,17.6,13.3,17.7,13.3,17.7c0.1,0.1,0.1,0,0.2,0c0,0,0,0,0-0.1
			c-0.1-0.1-0.1-0.2,0-0.3h0.1c0.1,0.1,0,0.2,0,0.2c0,0,0.1,0.1,0.1,0.1c0.1,0,0-0.1,0.1-0.2c0.1-0.1,0.1-0.1,0.2-0.1
			c0,0,0,0.1,0,0.1c0,0,0.1,0.1,0,0.1c-0.1,0.1-0.1,0.2-0.1,0.3c0,0.1-0.3,0.2-0.5,0.3c0,0,0-0.1,0-0.2c0.1,0,0.1,0,0.2,0
			c0,0,0.1,0,0.2-0.1c0,0,0-0.1-0.1-0.1c0,0,0,0,0,0C13.5,17.8,13.3,17.8,13.3,17.7C13.2,17.7,13.3,17.7,13.3,17.7z M13.4,18.1
			c0.1,0,0.1,0,0.2-0.1c0.1,0.1,0.1,0.5,0.1,0.6c0,0.3-0.1,0.4,0,0.7c-0.2-0.1-0.2-0.2-0.3-0.3c0-0.3,0.1-0.5,0-0.8
			C13.4,18.2,13.3,18.1,13.4,18.1z M13.7,17c0.1,0,0.3,0.1,0.3,0.2c0,0,0,0,0.1,0c0.1,0,0.1,0,0.2,0.1c0,0,0,0.1,0,0.1
			c0,0.1-0.2,0.1-0.3,0.1c0-0.1,0-0.1,0-0.1c-0.1,0-0.3,0.1-0.5,0C13.5,17.1,13.6,17,13.7,17z M14,16.4c0.1,0,0.1,0,0.2,0
			c0,0,0,0-0.1,0c-0.2,0.1-0.3,0.3-0.4,0.4l-0.2,0C13.6,16.7,13.7,16.4,14,16.4z M13.9,20.9c0,0,0,0,0,0.1h-0.1c-0.1,0-0.2,0-0.2,0
			C13.7,20.9,13.8,20.9,13.9,20.9z M13.8,18c0.1,0.1,0.1,0.3,0.1,0.5c0.1,0.2,0,0.4,0,0.6c-0.2-0.2-0.1-0.5-0.2-0.7
			c0-0.1-0.1-0.2-0.1-0.3C13.6,18,13.8,18,13.8,18z M14,21.4c0,0,0,0.1,0,0.1h0c-0.1,0-0.2,0-0.3,0.1C13.7,21.5,13.9,21.3,14,21.4z
			 M14.1,20.4c0,0.1-0.1,0.1-0.1,0.1c0,0,0,0,0,0c-0.1,0-0.1-0.1-0.2-0.1C13.9,20.4,14,20.4,14.1,20.4z M14.2,16.6
			c0.2,0,0.3,0,0.4,0h0c-0.1,0.1-0.2,0.1-0.3,0.1c-0.2,0-0.3,0.1-0.5,0.2c-0.1,0-0.1,0-0.1,0C13.9,16.7,14,16.6,14.2,16.6z
			 M13.9,17.9c0,0,0.1-0.1,0.1-0.1c0.1,0.1,0.2,0.3,0.3,0.6c0,0.3,0.2,0.4,0.1,0.4c-0.1,0-0.2-0.1-0.2-0.2
			C14,18.4,14,18.2,13.9,17.9C13.9,17.9,13.9,17.9,13.9,17.9z M14,16.9c0.3-0.3,0.5-0.2,0.8-0.3l0,0c0,0.1-0.1,0.2-0.2,0.2
			c-0.2,0-0.3,0-0.4,0.1C14.1,17,14.1,17,14,16.9C14,17,13.9,16.9,14,16.9z M14.1,17.6c0,0,0.1,0,0.1,0c0.3,0.2,0.1,0.7,0.5,1
			c0,0-0.2,0-0.2-0.1c-0.2-0.3-0.1-0.5-0.3-0.8C14,17.7,14.1,17.6,14.1,17.6z M14.3,17.4c0.1,0,0.2,0.1,0.3,0.2
			c0.1,0.3,0.1,0.5,0.2,0.9c-0.2,0-0.2-0.5-0.3-0.7c-0.1-0.1-0.2-0.2-0.3-0.3C14.3,17.4,14.3,17.4,14.3,17.4z M14.7,17
			C14.7,17.1,14.7,17.1,14.7,17c-0.2,0.1-0.2,0-0.4,0.1c0,0,0,0-0.1,0c0-0.1-0.1-0.1-0.1-0.1C14.4,16.9,14.5,16.9,14.7,17z"/>
		<path class="st3" d="M14.8,16.5c0.1,0.1,0.1,0.2,0,0.3V16.5z M14.8,17c0.1,0.1,0.1,0.2,0.2,0.1c0.2-0.3,0.7-0.4,0.6-0.5
			c-0.1-0.2-0.2-0.2-0.4-0.2c0-0.1,0.2-0.1,0.4-0.1c0-0.1,0-0.1,0-0.2c0.3,0.1,0.5,0.4,0.7,0.4c0.2,0,0.4-0.1,0.6-0.2h0
			c0,0.4,0.4,0.1,0.5,0.1c0,0.3-0.6,0.4-0.6,0.5c-0.1,0.1,0.1,0.2,0.1,0.2c0,0-0.3,0-0.2,0.1c0.1,0.1,0.4,0.1,0.4,0
			c0.1-0.2-0.1-0.2-0.1-0.3c0,0,0.1,0,0.2,0c0-0.1,0-0.1,0-0.1c0.1,0,0.2,0.1,0.5,0.1c0.1,0,0-0.1,0-0.1c0.1,0,0.2,0.1,0.3,0.2
			c0.1,0,0.1-0.1,0-0.3c0.1,0,0.2,0.3,0.4,0.4c0.1,0,0.1-0.1,0.1-0.1c0,0,0,0,0,0.1c0.2,0.7,0.5,0,0.6,0.1c0,0,0,0,0,0
			c-0.1,0.1-0.1,0.2-0.1,0.3c0.1,0.4-0.4,0.6-0.3,0.6c0,1-1.1,1-1.6,0.9c0.2,0.3,0.6,0.4,0.6,0.6c0,0.1,0.1,0.4,0.1,0.4
			c0.2,0.1,0.4-0.1,0.6-0.1c0.2,0,0.2,0.2,0.3,0.2c0.2,0,0.4-0.1,0.6-0.2c0.1,0.1-0.1,0.3,0,0.2c0,0,0,0,0.1,0c0,0.1-0.1,0.2,0,0.3
			c0,0,0.1,0,0.1,0.1c0,0.1-0.1,0-0.2,0.1c0,0,0.2,0,0.2,0c-0.1,0.1-0.3,0.2-0.3,0.3c0,0,0.1,0,0.2,0c0,0.1-0.2,0.1-0.2,0.2
			c0,0,0.1,0,0.1,0.1c-0.1,0.1-0.3,0.2-0.3,0.2c0,0,0.1,0.1,0.2,0.1c-0.2,0.1-0.3,0.2-0.5,0.2c0,0.1,0,0.1-0.1,0.2
			c0,0.1-0.2,0.1-0.3,0.1c0.1-0.2,0-0.4-0.2-0.4c0,0,0,0,0,0.1c0.1,0.2,0,0.4-0.3,0.4c-0.1,0.1-0.5,0.1-0.7-0.1v-0.1
			c0.2,0,0.2,0,0.4-0.1c0-0.1,0-0.1,0-0.1c-0.2,0-0.3,0.1-0.5,0.1c0-0.2,0.1-0.5,0.3-0.5c0.1-0.2,0.1-0.1,0.1-0.2
			c-0.1-0.1-0.2-0.1-0.4-0.1c0,0-0.1,0-0.1,0c0.2-0.3,0.4-0.3,0.6-0.2c0.1-0.1,0.2-0.1,0.2-0.1c0.1,0,0.1,0.2,0.2,0.2
			c0.1,0,0.3-0.1,0.3-0.2c0-0.2-0.4-0.3-0.6-0.2c-0.2,0-0.4,0-0.6-0.1c-0.1-0.1-0.3-0.2-0.4-0.3c0,0,0,0,0,0c0,0.1-0.1,0.2,0,0.3
			c0.1,0.1,0.3,0.1,0.3,0.3c0,0.1,0,0.1-0.1,0.2c-0.1,0.1-0.2,0.1-0.2,0.2c0,0.1,0,0.2,0.1,0.3c-0.1,0.1-0.3,0-0.4,0
			c0,0-0.1,0.2-0.1,0.2c-0.1,0-0.2-0.2-0.2-0.2c0,0-0.1,0.1-0.1,0.2c-0.1,0-0.1-0.2-0.2-0.2c-0.1,0.1-0.1,0.1-0.1,0.2
			c-0.1,0-0.1-0.1-0.2-0.1c-0.1,0.1-0.2,0.1-0.3,0.1c0,0,0.1-0.1,0-0.1c0,0,0,0,0,0c0,0.1-0.2,0.1-0.3,0.1v-0.4c0.1,0,0.2,0,0.4,0.1
			c0.1,0.1,0.1,0.2,0,0.3c0,0-0.1,0.1,0,0.1c0.3-0.1,0.2-0.4,0.2-0.4c0,0,0,0,0,0c0,0.1,0,0.3,0.1,0.4c0.1-0.2,0.2-0.4,0.3-0.5
			c0,0,0,0,0,0c0,0-0.1,0.3,0,0.4c0.1-0.1,0.2-0.4,0.3-0.5c-0.1,0.1-0.1,0.3,0,0.5c0.1-0.2,0-0.4,0.3-0.6v0
			c-0.1,0.2-0.2,0.4,0.2,0.5v0c-0.3-0.2,0-0.5,0.1-0.5c0,0,0-0.1,0-0.1c0-0.1-0.1-0.1-0.1-0.1c-0.1,0-0.2-0.1-0.2-0.2
			c0-0.1,0-0.3,0.1-0.4c0-0.1-0.2-0.2-0.3-0.4c-0.1,0.2-0.4,0.2-0.4,0c-0.3,0.1-0.2,0.2-0.4,0.4c0,0-0.1,0-0.1,0
			c0.1-0.1,0.1-0.2,0.2-0.4c0-0.1-0.1,0-0.2,0.1c-0.1,0.1-0.2,0.1-0.2,0.1c-0.1,0.2,0,0.4,0.3,0.4c0.3,0,0.5-0.1,0.7,0.1
			c0.3,0.2,0.1,0.5-0.3,0.6c-0.2,0-0.6,0.1-0.7-0.2c0,0,0-0.1-0.1-0.1v-0.1c0,0,0.1,0,0.1,0.1c0.1,0.1,0.2,0.1,0.4,0.2
			c0.1,0,0.2,0,0.3,0c0.2-0.1,0.2-0.3,0.1-0.3c-0.2,0-0.4,0-0.6,0c-0.1,0-0.2-0.1-0.3-0.1l0-0.6c0.4-0.2,0.7-0.3,1.1-0.5
			c0,0,0.1,0,0.2,0c0.5,0.6,0.7,1,1.5,1.1c0.3,0.1,0.7-0.1,0.8,0.3c0.1,0.2-0.1,0.5-0.4,0.5c-0.1,0-0.1-0.1-0.2-0.1
			c0-0.1,0-0.1-0.1-0.2c-0.1,0-0.2,0.1-0.2,0.2c-0.1,0.1,0.1,0.1,0.2,0.1c0.1,0.1-0.1,0.3-0.2,0.1c-0.1-0.1-0.1,0.2,0,0.3
			c0.1,0,0.2-0.1,0.2-0.1c0.2-0.1,0.3,0.2,0,0.2c-0.1,0,0,0.1,0,0.2c0.1,0.1,0.3,0.1,0.3,0c0-0.1,0-0.1,0-0.2
			c0.1-0.3,0.6-0.1,0.8-0.1c0,0,0.2,0,0.3-0.1c-0.1,0-0.4-0.1-0.4-0.2c0.3,0,0.4,0,0.5-0.1c-0.1,0-0.3,0-0.4-0.1
			c0.2,0,0.4,0,0.6-0.1c-0.2,0-0.5,0-0.6-0.1c0.1,0,0.3,0.1,0.4,0c0.1,0,0.3-0.1,0.3-0.2c-0.2,0-0.2-0.1-0.6,0
			c0-0.1,0.5-0.1,0.4-0.1c-0.1,0-0.3,0-0.4-0.1v0c0.2,0,0.5-0.1,0.6-0.3c-0.1,0.1-0.5,0.1-0.6,0.1c0.3,0,0.6-0.3,0.5-0.3
			c-0.2,0.1-0.4,0.1-0.5,0.1c0,0,0,0-0.1,0c0,0,0-0.1,0-0.1c-0.1-0.1-0.4,0.3-0.8,0.1c-0.2-0.1-0.2-0.3-0.3-0.5
			c-0.1-0.1-0.2-0.3-0.3-0.4c-0.2-0.1-0.3-0.3-0.5-0.5c0-0.1-0.3-0.4-0.5-0.3c-0.1,0-0.2,0-0.3,0.1c-0.5,0.1-0.8,0.3-1.2,0.3v-1.1
			c0,0,0,0,0,0c0,0,0,0,0-0.1L14.8,17L14.8,17z M14.8,19.5C14.8,19.5,14.8,19.5,14.8,19.5C14.8,19.5,14.8,19.5,14.8,19.5z
			 M14.9,21.4c0,0,0.1,0,0.1,0.1c0.1,0.1-0.2,0.2-0.3,0.2C14.8,21.5,14.9,21.4,14.9,21.4z M15.1,17.1c0.2-0.2,0.5-0.3,0.5-0.4
			c0-0.2-0.3-0.3-0.3-0.3c0.1-0.1,0.3,0,0.4,0.1c0,0,0-0.2,0-0.3c0.3,0.1,0.3,0.4,0.2,0.6c0,0,0,0.1,0,0c0.1-0.2,0.4-0.2,0.6-0.3
			c0,0,0,0,0,0c0,0-0.1,0.1-0.1,0.1c0,0,0,0,0,0c0.4,0,0.7-0.1,0.7-0.1c0,0-0.1,0.2-0.7,0.3c-0.1,0.2,0.1,0.3,0.1,0.4
			c-0.2,0-0.2-0.1-0.2-0.2c0,0,0,0-0.1,0c-0.2,0.2,0.2,0.5,0.3,0.5c0,0,0,0-0.1,0c-0.6-0.1-0.5-0.6-1-0.6c-0.2,0-0.4,0.2-0.5,0.4
			c0,0.2,0.1,0.4,0.3,0.4c0.4,0.1,0.7-0.1,1.1-0.2c0.2,0,0.4,0,0.4-0.1c0,0-0.1-0.1-0.2-0.1h0c0.2,0,0.3-0.1,0.3-0.4
			c0.1,0,0.3,0.2,0.3,0.2c0.1,0-0.1-0.2-0.1-0.3c0.2,0,0.4,0.1,0.4,0.3c0.1,0-0.1-0.4,0-0.4c0.3,0.1,0.3,0.4,0.3,0.4
			c0.1-0.1,0-0.2,0.1-0.3c0.2,0.1,0.3,0.2,0.3,0.4v0c0.1,0,0.1-0.1,0.1-0.2c0.1,0.1,0.2,0.2,0.1,0.4l0,0c0,0,0.1,0,0.1,0
			c0.2-0.1,0.1-0.2,0.2-0.3c0.1,0.3,0,0.5-0.3,0.6c0,0.1,0,0.3-0.1,0.4c-0.1,0.2-0.3,0.3-0.5,0.4c-0.3,0.1-1,0.1-1.2-0.1
			c0,0-0.1-0.1-0.1-0.1c0.4,0.1,1.5,0.2,1.7-0.4c0.1-0.4-0.3-0.6-0.5-0.7c-0.7-0.1-1.2,0.2-2,0.4c-0.4,0.1-1,0.1-1.1-0.4
			C14.9,17.4,14.9,17.2,15.1,17.1z M17.3,21.5C17.3,21.5,17.3,21.5,17.3,21.5c0,0.1,0,0.1,0,0.1c0,0.1-0.1,0-0.2,0.1
			C17.1,21.7,17.2,21.5,17.3,21.5z M17.4,21c0,0,0,0.1-0.1,0.1c-0.1-0.1-0.1-0.1-0.3,0C17.1,21,17.3,20.9,17.4,21z M17.5,21.9
			c0,0,0.1,0.1,0.1,0.1c0,0.1-0.3,0.1-0.3,0C17.4,22,17.5,22,17.5,21.9z M18.3,21.6c0,0,0.2,0,0.2,0c0,0,0.1,0.1-0.1,0.2
			C18.5,21.7,18.5,21.7,18.3,21.6z M14.8,17.9C14.8,17.9,14.8,17.9,14.8,17.9c0.2,0.3,0.6,0.3,0.9,0.3c0.6-0.1,1.4-0.4,2-0.4
			c0.2,0,0.6,0.1,0.6,0.3c0,0.2-0.1,0.3-0.2,0.4c-0.2,0.1-0.6,0.2-0.8,0.2c-0.1,0-0.6,0-0.7-0.2c-0.1-0.1-0.2-0.1-0.3-0.1
			c-0.4,0-0.9,0.2-1.3,0.2C14.8,18.6,14.8,18.1,14.8,17.9z M15.8,17.2c0.2,0.1,0.3,0.3,0.5,0.4c0,0-0.5,0.2-0.7,0.2
			c-0.3,0-0.4-0.1-0.4-0.3C15.2,17.3,15.6,17.1,15.8,17.2z"/>
		<path class="st6" d="M9.2,18.1l0.8-0.3l-0.3,0.8l0.9,0.3l-0.9,0.3l0.3,0.8l-0.8-0.3l-0.3,0.8l-0.4-0.8l-0.9,0.3L8,19.3L7.2,19
			v-0.1L8,18.6l-0.3-0.8l0.8,0.3l0.4-0.8L9.2,18.1z M9.1,18.2L9.9,18l-0.3,0.7l0.8,0.2l-0.8,0.3l0.3,0.7l-0.8-0.3l-0.3,0.7l-0.3-0.7
			l-0.8,0.3l0.3-0.7l-0.7-0.3l0.7-0.3L7.8,18l0.8,0.3l0.3-0.7L9.1,18.2z"/>
	</g>
</g>
<g>
	<defs>
		<rect id="SVGID_00000116931065642156600910000010806250131705695419_" x="27.6" y="-4.7" width="52.4" height="48.3"/>
	</defs>
	<clipPath id="SVGID_00000109009661147829565690000009614436792751747239_">
		<use xlink:href="#SVGID_00000116931065642156600910000010806250131705695419_"  style="overflow:visible;"/>
	</clipPath>
	<g style="clip-path:url(#SVGID_00000109009661147829565690000009614436792751747239_);">
		<path class="st3" d="M40.8,12c-0.2,0-0.5,0-0.7,0c-0.3,0-0.6,0-0.8,0c0.1,1.1,0.2,2.7,0.2,4.9c0,2.5-0.1,5.5-3.4,5.5
			c-3.1,0-3.7-1.7-3.7-4.8c0-2.1,0.1-4.1,0.3-5.6c-0.4,0-0.8,0-1.1,0c-0.3,0-0.9,0-1.4,0c0.1,0.7,0.3,2.1,0.3,3.9V19
			c0,3,1.9,4.4,5.1,4.4c3.2,0,5-1.7,5.1-5C40.5,15.9,40.7,13.2,40.8,12z M52.1,12.1c-0.2,0-0.4,0-0.7,0c-0.2,0-0.4,0-0.7,0
			c0.2,1.6,0.2,5.3,0.2,8.1c-2.4-2.3-5.5-5.5-8.2-8.2h-0.9c0,0.7,0.1,2,0.1,3.8c0,2.7-0.3,6.8-0.4,7.4c0.3,0,0.5-0.1,0.7-0.1
			c0.2,0,0.5,0,0.7,0.1c-0.1-0.6-0.2-2.8-0.2-4.7c0-1.5,0-2.6,0.1-3.5c2.8,2.7,5.6,5.6,8.2,8.3c0.1,0,0.3,0,0.4,0c0.2,0,0.3,0,0.5,0
			c-0.1-1.5-0.1-4.1,0-5.9C51.9,16.1,52,13.7,52.1,12.1z M61.5,19.5c0.1-3.5-6.6-2.4-6.6-5.1c0-1,1-1.8,2.4-1.8c1.3,0,2,0.7,2.4,1.4
			c0,0,0.2-0.5,0.4-0.7c0.2-0.3,0.3-0.3,0.6-0.6c-0.8-0.5-1.9-0.9-3.3-0.9c-2.5,0-4.4,1.1-4.4,3.1c0,3.7,6.4,2.5,6.4,5.1
			c0,1.1-1.1,2.2-2.8,2.2c-1.7,0-2.7-0.8-3-1.6c0,0-0.2,0.5-0.4,0.8c-0.4,0.4-0.5,0.5-0.8,0.7c0.8,0.5,2.3,1.2,3.9,1.2
			C59.5,23.4,61.5,22.3,61.5,19.5z M77.7,12.1c-0.3,0-0.5,0-0.7,0c-0.2,0-0.5,0-0.6,0c-0.4,1.3-2.1,6.7-2.8,8.8h-0.1
			c-0.6-1.9-2.5-7.2-2.9-8.8c-0.2,0-0.4,0-0.6,0c-0.3,0-0.5,0-0.7,0c-0.4,1.5-2.2,6.6-3,8.8h-0.1c-0.9-3.2-1.7-5.8-2.5-8.8
			c-0.4,0-0.7,0-1.1,0c-0.4,0-0.9,0-1.3,0c0.3,0.6,1.3,3.2,1.6,4.1c0.8,2.3,1.4,4.7,2.1,7c0.2,0,0.5-0.1,0.7-0.1
			c0.3,0,0.5,0.1,0.7,0.1c0.8-2.6,2.4-6.7,3-8.6h0.1c1.1,2.9,2,5.7,2.8,8.6c0.3,0,0.5-0.1,0.7-0.1c0.3,0,0.5,0.1,0.7,0.1
			C74.6,20.6,77.1,13.5,77.7,12.1z"/>
	</g>
</g>
</svg>
